<svg id="Livello_1" data-name="Livello 1" xmlns="http://www.w3.org/2000/svg" viewBox="0 0 2331.55 922.1"><defs><style>.cls-1{fill:#ec95b9;}.cls-2{fill:none;stroke:#fff;stroke-miterlimit:10;stroke-width:13.57px;}.cls-3{fill:#fff;}</style></defs><title>IOO-logo</title><path class="cls-1" d="M79.62,1003.44q-.59-6.5,5.77-7.07l44.35-4q3.18-.28,4.39,1.29a9.11,9.11,0,0,1,1.49,4.74l18.19,203a8.8,8.8,0,0,1-.62,4.86c-.62,1.13-2,1.78-4.1,2l-44.35,4q-6.36.57-6.92-5.79ZM162.41,996q-.58-6.49,5.32-7l145-13q6-.54,6.63,6l3.61,40.27q.58,6.51-5.47,7l-44.5,4,14,156.2a6.35,6.35,0,0,1-1.23,4.92,6.55,6.55,0,0,1-4.55,2l-44.2,4q-5.44.5-6-5.87l-14-156.2-44.5,4q-5.91.52-6.49-6ZM523,1168.31q2.84,6.15-3.22,6.7l-46.92,4.2a9.65,9.65,0,0,1-5.58-1,8.09,8.09,0,0,1-3.61-4.56l-7.59-21.6-63,5.65-3.46,22.58a8.09,8.09,0,0,1-2.75,5.13,9.3,9.3,0,0,1-5.16,2l-47.07,4.22q-6.06.54-4.35-6l45.83-208.71q1.53-6.71,7.89-7.27l47.68-4.27q6.36-.57,9.06,5.74Zm-121.67-63.7,37.23-3.34-18.93-54.61-7.05-25.91-2.49,26.77ZM530.83,963q-.58-6.51,5.77-7.08L580,952q6.36-.57,6.94,5.94l14,156,64-5.74q5.91-.52,6.48,5.83l3.63,40.57q.57,6.36-5.33,6.88L556,1171.77c-4.24.37-6.55-1.55-6.93-5.79Zm159.83-14.32q-.58-6.51,5.78-7.08l44.34-4c2.13-.19,3.58.24,4.39,1.29a9.09,9.09,0,0,1,1.49,4.75l18.2,203a8.7,8.7,0,0,1-.63,4.86c-.62,1.13-2,1.78-4.1,2l-44.35,4q-6.36.57-6.92-5.79ZM983.57,1127c1.89,4.1.83,6.33-3.21,6.69l-46.92,4.21a9.69,9.69,0,0,1-5.59-1,8.17,8.17,0,0,1-3.61-4.56l-7.58-21.6-63,5.64L850.22,1139a8.16,8.16,0,0,1-2.74,5.13,9.4,9.4,0,0,1-5.16,2l-47.08,4.22c-4,.36-5.48-1.65-4.35-6l45.83-208.72q1.54-6.69,7.9-7.26L892.29,924q6.36-.57,9.07,5.75Zm-121.66-63.71,37.23-3.33-18.93-54.61-7.05-25.91-2.49,26.77Zm129.5-141.6q-.58-6.51,5.78-7.08l44.5-4c1-.09,1.91-.19,2.71-.32a5,5,0,0,1,2.31.18,6.32,6.32,0,0,1,2.36,1.62,24.38,24.38,0,0,1,3,4.15l59.24,82.12,11.13,18.68-3.42-19.37L1111.29,911a7,7,0,0,1,1.19-4.68,5.78,5.78,0,0,1,4.59-2.39l43.59-3.91a8.4,8.4,0,0,1,4,.78q2.22.94,2.58,4.88l18.22,203.28q.57,6.36-6.4,7l-36.77,3.3a10.75,10.75,0,0,1-5.9-1.08,11.92,11.92,0,0,1-4.67-4.38l-68-91.25-10.12-15.88,3.45,16.32,8.67,96.72q.57,6.36-5.79,6.93l-43.44,3.89q-6.36.57-6.93-5.78Z" transform="translate(-79.57 -835.13)"/><path class="cls-1" d="M332,1371.91a82.63,82.63,0,0,1,3.9-34.84,80.61,80.61,0,0,1,16.77-28.28A87.16,87.16,0,0,1,379.89,1289a107.2,107.2,0,0,1,71.29-6.39,88.09,88.09,0,0,1,30.38,14.67,79.82,79.82,0,0,1,21.61,24.92,82.67,82.67,0,0,1,10,33.51l5.2,58a82.25,82.25,0,0,1-3.91,34.68,79.09,79.09,0,0,1-16.85,28.21,88.79,88.79,0,0,1-27.22,19.76,101.74,101.74,0,0,1-35,9.32,102.86,102.86,0,0,1-36.34-2.93,87.59,87.59,0,0,1-30.3-14.6,79.63,79.63,0,0,1-21.52-24.77,82.11,82.11,0,0,1-10-33.43Zm60.7,49a41.48,41.48,0,0,0,3.82,14.46,33.21,33.21,0,0,0,8.06,10.8,32.34,32.34,0,0,0,11.64,6.51,36.51,36.51,0,0,0,14.55,1.44,35.89,35.89,0,0,0,14-4,32.55,32.55,0,0,0,10.23-8.47,33.44,33.44,0,0,0,6-12.06,41.78,41.78,0,0,0,1.17-14.9l-4.51-50.4a42.26,42.26,0,0,0-3.73-14.32,33.29,33.29,0,0,0-8-10.88,32.1,32.1,0,0,0-11.65-6.58,39.13,39.13,0,0,0-28.61,2.56,31.84,31.84,0,0,0-10.29,8.55,34.12,34.12,0,0,0-6,12.14,41.16,41.16,0,0,0-1.2,14.75Z" transform="translate(-79.57 -835.13)"/><path class="cls-1" d="M540,1280q-.59-6.51,5.77-7.08l81-7.26a69.4,69.4,0,0,1,27.33,2.74,68.55,68.55,0,0,1,22.67,12,64.47,64.47,0,0,1,16,19.15,60.35,60.35,0,0,1,7.35,24.06l2,21.8a60.1,60.1,0,0,1-3.28,26.31,66.42,66.42,0,0,1-13.29,22,71.92,71.92,0,0,1-21,15.84,74.44,74.44,0,0,1-26.47,7.64l-29.06,2.6,5.21,58.13q.57,6.35-5.79,6.92l-43.29,3.88q-6.36.57-6.93-5.79Zm88,84.42a21.89,21.89,0,0,0,7.59-2,19.21,19.21,0,0,0,5.88-4.27,17.94,17.94,0,0,0,3.59-5.81,15.09,15.09,0,0,0,.91-6.87l-.92-10.3a15.72,15.72,0,0,0-2.12-6.67,16.5,16.5,0,0,0-4.65-5.08,21.43,21.43,0,0,0-14.3-3.75l-23.76,2.13,4,44.8Z" transform="translate(-79.57 -835.13)"/><path class="cls-1" d="M726.46,1263.31q-.59-6.49,5.77-7.07l128.66-11.54c3.93-.35,6.1,1.65,6.48,6L871,1291.1q.57,6.35-5.34,6.88l-79,7.09,2.52,28.15,59.49-5.33a7.14,7.14,0,0,1,5,1.15q2,1.43,2.27,4.91l3.6,40.11c.38,4.24-1.66,6.56-6.09,7l-59.49,5.34,2.64,29.51,81.28-7.28q6.06-.55,6.63,5.81l3.5,39q.57,6.36-5.49,6.9l-130.93,11.74q-6.35.57-6.92-5.79Z" transform="translate(-79.57 -835.13)"/><path class="cls-1" d="M906.42,1247.18q-.58-6.5,5.78-7.07l44.5-4c1-.09,1.91-.2,2.72-.32a5,5,0,0,1,2.3.17,6.22,6.22,0,0,1,2.35,1.62,24.19,24.19,0,0,1,3,4.15l59.24,82.12,11.13,18.69-3.42-19.38-7.77-86.73a7,7,0,0,1,1.18-4.69,5.82,5.82,0,0,1,4.6-2.39l43.59-3.91a8.42,8.42,0,0,1,4,.79c1.49.63,2.34,2.25,2.58,4.88l18.22,203.28q.57,6.35-6.4,7l-36.78,3.29a10.8,10.8,0,0,1-5.89-1.07,11.93,11.93,0,0,1-4.66-4.39l-68-91.25-10.12-15.88,3.45,16.33,8.67,96.72q.57,6.36-5.78,6.92l-43.45,3.9q-6.36.57-6.92-5.79Z" transform="translate(-79.57 -835.13)"/><path class="cls-1" d="M1203.85,1293.76a82.6,82.6,0,0,1,3.9-34.83,80.26,80.26,0,0,1,16.76-28.28,87,87,0,0,1,27.22-19.83,107,107,0,0,1,71.29-6.39,87.82,87.82,0,0,1,30.38,14.67A79.91,79.91,0,0,1,1375,1244a82.71,82.71,0,0,1,10,33.51l5.2,58a82.37,82.37,0,0,1-3.91,34.68,79.27,79.27,0,0,1-16.85,28.22,89.05,89.05,0,0,1-27.22,19.75,101.64,101.64,0,0,1-35,9.32,102.69,102.69,0,0,1-36.35-2.92,87.85,87.85,0,0,1-30.3-14.6,79.74,79.74,0,0,1-21.52-24.77,82.42,82.42,0,0,1-10-33.44Zm60.69,49a41.54,41.54,0,0,0,3.82,14.46,33.46,33.46,0,0,0,8.06,10.8,32.68,32.68,0,0,0,11.65,6.51,36.48,36.48,0,0,0,14.54,1.44,35.89,35.89,0,0,0,14-4,32.76,32.76,0,0,0,10.22-8.47,33.36,33.36,0,0,0,6-12.06,41.6,41.6,0,0,0,1.18-14.91l-4.52-50.4a42.43,42.43,0,0,0-3.72-14.31,33.47,33.47,0,0,0-8-10.88,31.86,31.86,0,0,0-11.66-6.58,39,39,0,0,0-28.6,2.56,32,32,0,0,0-10.3,8.55,34.24,34.24,0,0,0-6,12.13,41.2,41.2,0,0,0-1.19,14.76Z" transform="translate(-79.57 -835.13)"/><path class="cls-1" d="M1411.82,1201.88q-.58-6.5,5.77-7.07l44.5-4c1-.09,1.91-.2,2.72-.32a4.94,4.94,0,0,1,2.3.17,6.32,6.32,0,0,1,2.36,1.62,24.25,24.25,0,0,1,3,4.15l59.24,82.12,11.13,18.69-3.41-19.38-7.78-86.73a7.11,7.11,0,0,1,1.18-4.68,5.81,5.81,0,0,1,4.6-2.4l43.59-3.91a8.58,8.58,0,0,1,4,.79c1.48.63,2.33,2.25,2.57,4.88l18.22,203.28q.57,6.35-6.39,7l-36.78,3.29a10.75,10.75,0,0,1-5.9-1.07,11.92,11.92,0,0,1-4.66-4.39l-68-91.25-10.12-15.88,3.44,16.33,8.67,96.72q.57,6.36-5.78,6.92l-43.45,3.9q-6.35.57-6.92-5.79Z" transform="translate(-79.57 -835.13)"/><path class="cls-1" d="M1633.1,1182.05q-.58-6.51,5.78-7.08l43.44-3.89q6.35-.57,6.94,5.94l14,156,64-5.74q5.91-.52,6.47,5.83l3.64,40.57q.57,6.35-5.33,6.88l-113.83,10.2q-6.36.57-6.93-5.78Z" transform="translate(-79.57 -835.13)"/><path class="cls-1" d="M1792.94,1167.72q-.59-6.49,5.77-7.07l44.35-4q3.18-.29,4.39,1.29a9.11,9.11,0,0,1,1.49,4.74l18.19,203a8.7,8.7,0,0,1-.63,4.86c-.61,1.13-2,1.78-4.1,2l-44.35,4q-6.35.57-6.92-5.79Z" transform="translate(-79.57 -835.13)"/><path class="cls-1" d="M1894.35,1158.63q-.58-6.5,5.77-7.07l44.5-4c1-.09,1.92-.2,2.72-.32a4.94,4.94,0,0,1,2.3.17A6.24,6.24,0,0,1,1952,1149a23.72,23.72,0,0,1,3,4.15l59.24,82.12,11.13,18.69-3.41-19.38-7.78-86.73a7.06,7.06,0,0,1,1.19-4.68,5.77,5.77,0,0,1,4.59-2.4l43.59-3.91a8.58,8.58,0,0,1,4,.79c1.48.63,2.34,2.25,2.57,4.88l18.22,203.28q.57,6.35-6.39,7l-36.78,3.29a10.75,10.75,0,0,1-5.9-1.07,12,12,0,0,1-4.66-4.39l-68-91.25-10.12-15.87,3.44,16.32,8.67,96.72q.57,6.36-5.78,6.92l-43.44,3.9q-6.36.57-6.93-5.79Z" transform="translate(-79.57 -835.13)"/><path class="cls-1" d="M2115.63,1138.8q-.57-6.51,5.78-7.08l128.65-11.53q5.91-.53,6.49,6l3.62,40.41q.57,6.36-5.33,6.89l-79,7.08,2.52,28.15,59.49-5.33a7.12,7.12,0,0,1,5,1.16q2,1.42,2.28,4.91l3.59,40.11q.57,6.35-6.09,7l-59.49,5.33,2.65,29.52,81.28-7.29q6.06-.54,6.63,5.82l3.5,39q.57,6.36-5.49,6.9l-130.93,11.73q-6.35.57-6.92-5.78Z" transform="translate(-79.57 -835.13)"/><path class="cls-2" d="M1300.57,1053.88l1020.06-91.32a44.49,44.49,0,0,1,48.27,40.33l35.26,393.39a44.48,44.48,0,0,1-40.33,48.26L477,1613.66" transform="translate(-79.57 -835.13)"/><path class="cls-3" d="M1303.4,1074.12a20.41,20.41,0,1,1,18.51-22.15A20.41,20.41,0,0,1,1303.4,1074.12Z" transform="translate(-79.57 -835.13)"/><path class="cls-3" d="M476.19,1593.25a20.41,20.41,0,1,0,22.14,18.5A20.4,20.4,0,0,0,476.19,1593.25Z" transform="translate(-79.57 -835.13)"/><path class="cls-3" d="M754.83,1675.41l7.21,80.47-14.94,1.34L741,1689.28l-17,1.53-1.13-12.53Z" transform="translate(-79.57 -835.13)"/><path class="cls-3" d="M837.24,1709.17a21.79,21.79,0,0,1,7.25,15,23.82,23.82,0,0,1-2.42,13.08,24.54,24.54,0,0,1-9.93,10.1q-6.89,4-17.23,5a56.26,56.26,0,0,1-16.83-1,42.56,42.56,0,0,1-14.24-5.62l5.4-12.18a32.6,32.6,0,0,0,11.16,4.85,40.41,40.41,0,0,0,13.12,1q7.93-.72,12.18-4.4a11.11,11.11,0,0,0-1.36-17.72q-4.59-2.78-13.45-2l-7.35.65-.92-10.23L819,1682.3l-36.56,3.27L781.27,1673l54.84-4.91.89,10-17.46,25Q830.82,1703.49,837.24,1709.17Z" transform="translate(-79.57 -835.13)"/><path class="cls-3" d="M909,1704.47l31.61-2.83,1.07,11.95-31.61,2.84Z" transform="translate(-79.57 -835.13)"/><path class="cls-3" d="M1030.73,1650.68l7.21,80.48L1023,1732.5l-6.09-68-17,1.53-1.12-12.53Z" transform="translate(-79.57 -835.13)"/><path class="cls-3" d="M1135.51,1704l-14.25,1.27,1.64,18.28-14.49,1.3-1.64-18.28-44.14,4-.93-10.35,35-55.4,16-1.43-32.92,52.89,26.33-2.36-1.45-16.21,14-1.25,1.45,16.21,14.26-1.28Z" transform="translate(-79.57 -835.13)"/><path class="cls-3" d="M1277.86,1709.65l-4.9-53.33-22.48,46.52-6.67.59-30.33-41.08,4.72,52.65-14.26,1.28-7.21-80.47,12.3-1.11,36.74,50.48,26.6-56.15,12.3-1.11,7.33,80.46Z" transform="translate(-79.57 -835.13)"/><path class="cls-3" d="M1375.74,1682.11l-40.23,3.6-6.26,19.34-15.41,1.38,29-83.72,14.71-1.32,43.54,77.22-15.63,1.4Zm-6-11.29L1351.42,1637l-11.91,36.52Z" transform="translate(-79.57 -835.13)"/><path class="cls-3" d="M1475.47,1691.94l-18.55-22.09a29.27,29.27,0,0,1-3.09.39l-18.17,1.63,2.11,23.45-15,1.34-7.21-80.47,33.11-3a44.75,44.75,0,0,1,18.53,1.81,26.63,26.63,0,0,1,12.78,8.82,27.83,27.83,0,0,1,5.51,14.92,27.45,27.45,0,0,1-3,16,26.38,26.38,0,0,1-11.83,10.91l20.88,24.79Zm-11.11-63.2q-5.43-3.69-15.2-2.81l-17.47,1.56,2.87,32.08L1452,1658q9.76-.87,14.45-5.52t4-12.36Q1469.79,1632.43,1464.36,1628.74Z" transform="translate(-79.57 -835.13)"/><path class="cls-3" d="M1579.76,1669.85l1.13,12.64-68.63,6.15-.9-10,42.18-62.07-46.56,4.17-1.13-12.64,66.33-5.95.9,10-42.18,62.07Z" transform="translate(-79.57 -835.13)"/><path class="cls-3" d="M1620.17,1674.74a39.66,39.66,0,0,1-16.84-13.44,42.9,42.9,0,0,1-3.81-42.42,39.73,39.73,0,0,1,14.19-16.22,49,49,0,0,1,44.38-4,40,40,0,0,1,16.84,13.38,43.14,43.14,0,0,1,3.81,42.54,39.83,39.83,0,0,1-14.19,16.16,48.89,48.89,0,0,1-44.38,4Zm35.66-14.67a26.38,26.38,0,0,0,9.21-11,30.75,30.75,0,0,0-2.61-29.09,26.34,26.34,0,0,0-11-9.21,30.91,30.91,0,0,0-29,2.6,26.29,26.29,0,0,0-9.21,11,30.7,30.7,0,0,0,2.6,29.09,26.31,26.31,0,0,0,11,9.21,30.91,30.91,0,0,0,29-2.6Z" transform="translate(-79.57 -835.13)"/><path class="cls-3" d="M1808.06,1649.38l1.14,12.65-59.32,5.31-.9-10,29.24-33.21q4.93-5.66,6.49-9.68a17.13,17.13,0,0,0,1.21-7.81c-.33-3.76-1.86-6.52-4.56-8.29s-6.52-2.43-11.42-2q-12.3,1.11-18.1,10.09l-11.19-7.11a31.09,31.09,0,0,1,11.83-11,44.24,44.24,0,0,1,17.56-5.11q13.1-1.17,21.48,4.33t9.33,16.2a28.15,28.15,0,0,1-1.66,12.55q-2.24,6-9.4,14.05l-19.66,22.39Z" transform="translate(-79.57 -835.13)"/><path class="cls-3" d="M1845,1655.06a33.13,33.13,0,0,1-13.23-13.19q-5.22-9-6.37-21.85t2.38-22.64a33.1,33.1,0,0,1,10.68-15.32,31.27,31.27,0,0,1,16.8-6.44A31.63,31.63,0,0,1,1873,1579a32.93,32.93,0,0,1,13.29,13.18q5.2,9,6.36,21.85t-2.37,22.64A32.89,32.89,0,0,1,1879.5,1652a33.09,33.09,0,0,1-34.54,3.1Zm29.5-18q4.36-7.57,3.1-21.72t-6.91-20.82a16.53,16.53,0,0,0-27.13,2.43q-4.37,7.59-3.1,21.72t6.91,20.82a16.53,16.53,0,0,0,27.13-2.43Z" transform="translate(-79.57 -835.13)"/><path class="cls-3" d="M1974.41,1634.47l1.13,12.65-59.32,5.31-.89-10,29.24-33.21q4.93-5.65,6.49-9.68a17.27,17.27,0,0,0,1.21-7.81q-.51-5.64-4.57-8.29t-11.42-2q-12.3,1.11-18.1,10.09l-11.18-7.11a31,31,0,0,1,11.82-11,44.28,44.28,0,0,1,17.56-5.11q13.11-1.17,21.48,4.33t9.33,16.2a28.15,28.15,0,0,1-1.65,12.55q-2.25,6-9.4,14l-19.67,22.39Z" transform="translate(-79.57 -835.13)"/><path class="cls-3" d="M2016.27,1562.35l7.21,80.47-14.94,1.34-6.09-67.94-17,1.52-1.12-12.53Z" transform="translate(-79.57 -835.13)"/><path class="cls-3" d="M717,917.24c-.48-.25-.93-.48-1.38-.73l-2.32-1.29a.23.23,0,0,1-.14-.22c0-.65-.08-1.31-.14-2,0-.12.06-.17.13-.24l1.2-1.06c.49-.44,1-.86,1.46-1.31.8-.73,1.59-1.46,2.37-2.2l3.4-3.34.15-.15L725,907c-2.27,2.26-4.63,4.41-7.08,6.51.72.45,1.46.84,2.2,1.28,2.44-2,4.78-4.11,7.06-6.32l3.48,2.3-.68.64-1.58,1.43-1.83,1.57-2,1.66c-.46.38-.94.74-1.41,1.1-.71.54-1.42,1.06-2.13,1.59a7.9,7.9,0,0,1-2.79,1.37,11.78,11.78,0,0,1-3.34.43,8.58,8.58,0,0,1-2.84-.46c-.52-.2-1-.44-1.53-.68-2.84-1.39-5.59-2.94-8.28-4.6q-3.33-2.05-6.49-4.34-3.88-2.81-7.53-5.92a112.85,112.85,0,0,1-9-8.6,101.36,101.36,0,0,1-7.81-9.38,8.65,8.65,0,0,1-1.48-3.32,11.86,11.86,0,0,1-.19-3.94,6.88,6.88,0,0,1,.61-2.18c.5-1,1-2,1.5-3,.37-.72.75-1.43,1.13-2.13s.68-1.21,1-1.81.8-1.4,1.23-2.09,1-1.62,1.53-2.43.89-1.37,1.36-2c.58-.85,1.16-1.7,1.76-2.54s1.26-1.73,1.91-2.58c.78-1,1.59-2,2.4-3,1.21-1.52,2.49-3,3.79-4.41.81-.89,1.63-1.76,2.46-2.62s1.93-1.95,2.91-2.92c.54-.53,1.11-1,1.66-1.55l1.4-1.27,1.32-1.14,1.19-1c.36-.3.73-.59,1.1-.88l1.92-1.5c.4-.31.82-.61,1.23-.91s.75-.54,1.14-.79a7.15,7.15,0,0,1,2-.87,11.45,11.45,0,0,1,2.78-.45,9.56,9.56,0,0,1,4.64,1c2.29,1.17,4.57,2.39,6.78,3.71,2.47,1.48,4.87,3.05,7.22,4.71q3.9,2.76,7.55,5.82t7.29,6.61a106.94,106.94,0,0,1,8.33,9.22c.84,1.05,1.64,2.12,2.44,3.2a8.12,8.12,0,0,1,1.38,3.07,12.17,12.17,0,0,1,.31,3,8.33,8.33,0,0,1-.53,2.92c-.17.45-.4.89-.61,1.33s-.49,1-.75,1.52c-.37.72-.75,1.44-1.13,2.16s-.63,1.15-1,1.72l-1.17,2c-.47.78-.94,1.54-1.42,2.31-.36.59-.74,1.17-1.13,1.75-.58.87-1.16,1.73-1.77,2.58-.89,1.24-1.78,2.46-2.7,3.67-1.41,1.86-2.89,3.66-4.42,5.42s-3.25,3.61-5,5.33l-1.22,1.22-3.45-2.37a1.67,1.67,0,0,1,.12-.13,130.65,130.65,0,0,0,9-10.07c1.71-2.11,3.37-4.26,4.93-6.49,1-1.38,1.92-2.77,2.86-4.17.57-.84,1.1-1.71,1.64-2.59.67-1.08,1.32-2.18,2-3.28.45-.78.88-1.57,1.31-2.37s.7-1.35,1.07-2a2.61,2.61,0,0,0-.22-2.83,128.87,128.87,0,0,0-8.94-10,147.07,147.07,0,0,0-12.9-11.55q-5-4-10.35-7.51c-2.29-1.51-4.62-2.95-7-4.29-.75-.43-1.51-.87-2.28-1.27a2.34,2.34,0,0,0-2.59.25c-.83.61-1.63,1.26-2.42,1.91s-1.38,1.14-2.06,1.73-1.28,1.1-1.9,1.67-1.48,1.36-2.21,2.05-1.34,1.28-2,1.94c-.91.92-1.8,1.85-2.7,2.79-2.5,2.61-4.84,5.35-7.11,8.16q-2.73,3.38-5.24,6.94c-1.15,1.62-2.26,3.26-3.34,4.94-.67,1-1.32,2.09-2,3.15-.52.85-1,1.7-1.53,2.57s-.9,1.6-1.34,2.4c-.22.4-.42.79-.65,1.18a2.47,2.47,0,0,0-.11,2.4,2.31,2.31,0,0,0,.27.42c1.54,2,3.13,3.88,4.79,5.74q4.27,4.77,9,9.09,3.83,3.51,7.9,6.72a135.58,135.58,0,0,0,12.65,8.89c2.17,1.35,4.37,2.62,6.62,3.81l.47.25a2.46,2.46,0,0,0,2,.11l.24-.11A.91.91,0,0,0,717,917.24Z" transform="translate(-79.57 -835.13)"/><path class="cls-3" d="M709.75,902.18l.43-.47-6-4.58,3-3.37.74.58,6.83,5.26a.49.49,0,0,1,.21.37c.05.79.12,1.59.19,2.38a.34.34,0,0,1-.1.3l-1.69,1.73c-.75.76-1.5,1.52-2.26,2.27l-1.92,1.84c-.77.74-1.55,1.47-2.33,2.2-.11.11-.23.2-.35.31l-.16-.1q-3.62-2.37-7.08-4.95a.52.52,0,0,1-.24-.43c0-.76-.12-1.51-.18-2.27a.37.37,0,0,1,.11-.31l3.31-3.63a.33.33,0,0,1,.26-.13l2.79-.25a.36.36,0,0,1,.3.11l4.09,3.09Zm-5.61,1.21-.55.55,2.6,1.9.55-.55Z" transform="translate(-79.57 -835.13)"/><path class="cls-3" d="M704.51,847.78c-.06-.71-.12-1.4-.19-2.09a.24.24,0,0,1,.09-.23c.61-.56,1.21-1.11,1.83-1.66.79-.71,1.59-1.4,2.39-2.1l1.13-.92.49-.42,2.12,1.25c2.37,1.44,4.69,2.94,7,4.51.9.62,1.79,1.26,2.68,1.89a.37.37,0,0,1,.18.31c0,.67.11,1.35.17,2a.34.34,0,0,1-.09.28c-.84.89-1.67,1.78-2.5,2.68-1,1.09-2,2.18-3,3.26l-.13.14-3.21-2.47,4.34-4.55-.28-.21-.73.74-2.25,2.35a.33.33,0,0,1-.21.09l-2.52.23a.4.4,0,0,1-.33-.11c-.88-.64-1.76-1.3-2.65-1.93l-4.25-3Zm9.89-.54-3.82-2.55-1.76,1.64,3.84,2.63Z" transform="translate(-79.57 -835.13)"/><path class="cls-3" d="M703.29,894.61l-2.89,3.32c-1.44-1.15-2.87-2.29-4.28-3.51l-1.79,2.17c1.82,1.58,3.71,3.07,5.61,4.59-.92,1.07-1.9,2.08-2.85,3.13-.24-.18-.46-.34-.67-.51-2.14-1.68-4.24-3.42-6.3-5.2a.57.57,0,0,1-.21-.42c-.07-.84-.14-1.67-.22-2.51a.41.41,0,0,1,.08-.31l5.27-6.64,3.73-4.65.18-.22,3.48,2.93-3.5,4.25Z" transform="translate(-79.57 -835.13)"/><path class="cls-3" d="M695.51,875c-3.76-3.3-7.43-6.63-11-10.06l2.31-3,1.44,1.3c.15-.17.29-.31.42-.47l2.22-2.77a.45.45,0,0,1,.34-.18c.76,0,1.51-.12,2.27-.19a.33.33,0,0,1,.27.11l2.29,1.89,4.42,3.67a.54.54,0,0,1,.22.4c.06.77.14,1.54.23,2.31a.47.47,0,0,1-.12.36l-5.14,6.44A2.52,2.52,0,0,0,695.51,875Zm-2.72-11.12-1.58,2,3.69,3.23,1.61-2Z" transform="translate(-79.57 -835.13)"/><path class="cls-3" d="M712.72,854.52l-2.62,2.88c-2.33-1.8-4.67-3.57-7.06-5.32L701.26,854l7,5.44-2.58,3-10.09-8,.16-.18q1.59-1.72,3.19-3.44c.59-.62,1.2-1.22,1.8-1.83a.63.63,0,0,0,.11-.12,1,1,0,0,1,.84-.41c.68,0,1.36-.11,2-.18a.58.58,0,0,1,.42.1q3.66,2.55,7.25,5.22Z" transform="translate(-79.57 -835.13)"/><path class="cls-3" d="M679.87,875l2-3c2,2.07,4.08,4.09,6.2,6.09l1.57-2.11-6.31-6c.71-1,1.43-2,2.16-3l.15.12q3.81,3.6,7.73,7.09a.64.64,0,0,1,.24.46c.07.76.15,1.51.23,2.26a.55.55,0,0,1-.13.46L690.09,882c-.42.55-.82,1.11-1.24,1.67l-.1.13C685.69,881,682.74,878,679.87,875Z" transform="translate(-79.57 -835.13)"/><path class="cls-3" d="M682.27,886.27l3.57-5.12,2.86,2.73c-.19.28-.37.55-.57.81l-2.85,3.91L684,890.39a.29.29,0,0,1-.23.13l-1.93.16a.35.35,0,0,1-.3-.11c-2.29-2.38-4.5-4.83-6.6-7.39a.59.59,0,0,1-.14-.32c-.06-.8-.14-1.6-.22-2.4a.67.67,0,0,1,.08-.39c.38-.63.74-1.28,1.11-1.92s.59-1,.89-1.48.65-1.08,1-1.62l.9-1.44,2.58,2.76-3.28,5.13C679.27,883.13,680.75,884.71,682.27,886.27Z" transform="translate(-79.57 -835.13)"/><path class="cls-3" d="M684.61,893.53c3.3-4.51,6.66-9,10.08-13.39l3.41,3-10.45,13.27Z" transform="translate(-79.57 -835.13)"/><path class="cls-3" d="M719,899.88l3.46,2.56a156.66,156.66,0,0,1-11.81,11.23l-3.41-2.13c2.06-1.88,4.06-3.77,6-5.72S717.14,901.9,719,899.88Z" transform="translate(-79.57 -835.13)"/><path class="cls-3" d="M705.24,863l-2.65,3.13-10-8.24,2.54-3Q700.22,858.94,705.24,863Z" transform="translate(-79.57 -835.13)"/><path class="cls-3" d="M710.75,886a2.21,2.21,0,0,1-1.57-.51l-1.63-1.34-4.48-3.72a2.24,2.24,0,0,1-.84-1.63,2.07,2.07,0,0,1,.43-1.44l2-2.45c1-1.23,2-2.44,3-3.66a2.36,2.36,0,0,1,1-.77,2.12,2.12,0,0,1,2,.26c.08,0,.14.11.21.16l6.12,5.05a2.27,2.27,0,0,1,.79,1.22,2.17,2.17,0,0,1-.34,1.8,3.4,3.4,0,0,1-.23.3c-1.63,2-3.27,3.94-4.89,5.91A2.23,2.23,0,0,1,710.75,886Zm-1.43-14.62a1,1,0,0,0-.6.24,4,4,0,0,0-.28.3l-3.61,4.41c-.44.53-.87,1.06-1.3,1.6a1.14,1.14,0,0,0-.2,1.21,1.41,1.41,0,0,0,.45.55l4.44,3.69c.53.45,1.07.88,1.61,1.32a1.13,1.13,0,0,0,1.17.2,1.32,1.32,0,0,0,.58-.44l4.49-5.46.5-.61a1.16,1.16,0,0,0-.17-1.6l-.22-.18-5.91-4.88-.21-.16A1.1,1.1,0,0,0,709.32,871.37Z" transform="translate(-79.57 -835.13)"/><path class="cls-3" d="M726,867.52a2.08,2.08,0,0,1-.46,1.47c-1.65,2.06-3.32,4.11-5,6.17a2.12,2.12,0,0,1-3,.34c-.73-.58-1.45-1.2-2.18-1.79l-4-3.31a2.34,2.34,0,0,1-.81-1.1,2.06,2.06,0,0,1,.33-1.95c.49-.62,1-1.22,1.51-1.83,1.18-1.38,2.36-2.77,3.55-4.15a2.2,2.2,0,0,1,3.07-.45,11.76,11.76,0,0,1,1,.75l5.14,4.24A2.29,2.29,0,0,1,726,867.52Zm-1,0a1.17,1.17,0,0,0-.32-.72l-.22-.19-5.08-4.2c-.27-.23-.56-.45-.84-.67a1.23,1.23,0,0,0-1-.26,1.19,1.19,0,0,0-.68.46c-.94,1.11-1.89,2.21-2.82,3.32l-2.18,2.59a1.11,1.11,0,0,0-.28,1,1.22,1.22,0,0,0,.48.75l6,5,.18.15a1.15,1.15,0,0,0,1.5-.18l.17-.21,3.85-4.77c.31-.38.62-.75.92-1.13A1.16,1.16,0,0,0,725,867.54Z" transform="translate(-79.57 -835.13)"/><path class="cls-3" d="M721,894.06a2.11,2.11,0,0,1-1.57-.4l-2-1.55-4.2-3.37a2.09,2.09,0,0,1-.83-2,2.17,2.17,0,0,1,.52-1.09l3.87-4.65c.39-.47.77-.94,1.15-1.42a2.14,2.14,0,0,1,3.09-.27l3.86,3.23c.72.61,1.43,1.22,2.16,1.82a2.14,2.14,0,0,1,.74,1.2,2.06,2.06,0,0,1-.41,1.82l-2.3,2.79-2.67,3.14A2.16,2.16,0,0,1,721,894.06Zm-1.42-14.27a1.24,1.24,0,0,0-.86.47l-2.95,3.57-2,2.44a1.13,1.13,0,0,0-.24,1.16,1.43,1.43,0,0,0,.45.58l2.62,2.1,3.37,2.69a1.36,1.36,0,0,0,.59.29,1.19,1.19,0,0,0,1.17-.46q1.7-2,3.38-4c.52-.62,1-1.25,1.54-1.87a1.17,1.17,0,0,0,.25-.9,1.25,1.25,0,0,0-.5-.81l-5.9-4.93a1.33,1.33,0,0,0-.19-.14A1.05,1.05,0,0,0,719.54,879.79Z" transform="translate(-79.57 -835.13)"/><path class="cls-3" d="M735.5,876.08a2.28,2.28,0,0,1-.48,1.41c-1.19,1.57-2.37,3.16-3.56,4.73q-.54.71-1.11,1.38a2,2,0,0,1-2.73.35l-.33-.27-5.77-4.86a2.35,2.35,0,0,1-.84-1.28,2.15,2.15,0,0,1,.43-1.89l2.82-3.51c.69-.87,1.4-1.73,2.08-2.6a2,2,0,0,1,3-.29c1.06.94,2.14,1.87,3.2,2.82.84.74,1.68,1.5,2.51,2.26A2.42,2.42,0,0,1,735.5,876.08Zm-.94-.09a1.23,1.23,0,0,0-.45-.9l-1.74-1.57c-1.31-1.15-2.62-2.29-3.92-3.45a1.1,1.1,0,0,0-1.7.17c-.58.77-1.2,1.52-1.81,2.27q-1.49,1.86-3,3.71a1.23,1.23,0,0,0,.17,1.78c2,1.63,3.89,3.29,5.83,4.93.08.06.15.13.23.18a1.06,1.06,0,0,0,.93.16,1.14,1.14,0,0,0,.61-.47l3.26-4.23,1.31-1.74A1.16,1.16,0,0,0,734.56,876Z" transform="translate(-79.57 -835.13)"/><path class="cls-3" d="M725.64,851.33a2.14,2.14,0,0,1,1.57.45q2.88,2.25,5.67,4.64a2.13,2.13,0,0,1,.26,2.93c-.92,1.13-1.8,2.28-2.7,3.42l-2,2.47a2,2,0,0,1-1.28.76,2,2,0,0,1-1.69-.48l-2.78-2.32-3.25-2.64a2,2,0,0,1-.77-2,1.78,1.78,0,0,1,.47-1l1.11-1.26c1.27-1.41,2.54-2.81,3.8-4.22A2.35,2.35,0,0,1,725.64,851.33Zm.09.91a1.09,1.09,0,0,0-.78.4c-.25.27-.49.55-.73.82-1.37,1.54-2.72,3.08-4.1,4.6a1.16,1.16,0,0,0,.17,1.88c.55.4,1.08.85,1.61,1.28,1.39,1.16,2.79,2.31,4.18,3.48a1.14,1.14,0,0,0,1.71-.18c.45-.6.92-1.17,1.38-1.75,1.07-1.34,2.15-2.68,3.21-4a1.43,1.43,0,0,0,.25-.43,1.07,1.07,0,0,0-.34-1.15c-.3-.26-.6-.52-.91-.77l-4.81-3.92A1.16,1.16,0,0,0,725.73,852.24Z" transform="translate(-79.57 -835.13)"/><path class="cls-3" d="M736.51,874.49a1.69,1.69,0,0,1-1.33-.49l-1.61-1.46c-1.43-1.28-2.87-2.55-4.3-3.81a2.13,2.13,0,0,1-.67-1,2,2,0,0,1,.18-1.68c.21-.32.46-.63.7-.94l4.21-5.37a1.89,1.89,0,0,1,1-.71,1.62,1.62,0,0,1,1.6.37c.57.51,1.14,1,1.69,1.56,1.24,1.18,2.46,2.37,3.69,3.55a2.31,2.31,0,0,1,.7,2.16,2.21,2.21,0,0,1-.36.85L740.35,870c-.55.82-1.12,1.63-1.69,2.44-.29.43-.6.85-.9,1.27A1.62,1.62,0,0,1,736.51,874.49Zm5-8.44a1.08,1.08,0,0,0-.4-.74l-4.26-4.07c-.37-.35-.76-.68-1.13-1a.86.86,0,0,0-1.29.1c-.13.18-.28.35-.41.53l-3.29,4.27c-.35.44-.71.88-1,1.34a1.24,1.24,0,0,0-.23.44,1,1,0,0,0,.38,1.06c1,.9,2,1.79,3,2.7s1.87,1.71,2.82,2.56a.8.8,0,0,0,1.3-.16l.36-.5c.62-.88,1.24-1.75,1.85-2.63s1.21-1.76,1.82-2.64l.36-.57A1,1,0,0,0,741.56,866.05Z" transform="translate(-79.57 -835.13)"/><path class="cls-3" d="M737.23,894a1.85,1.85,0,0,1-.44,1.26c-.58.72-1.17,1.43-1.77,2.14-1,1.22-2.12,2.43-3.18,3.64a2,2,0,0,1-2.62.26c-.38-.28-.75-.57-1.12-.86l-5-3.82a1.82,1.82,0,0,1-.28-2.73c.55-.64,1.11-1.28,1.66-1.93,1.14-1.37,2.29-2.74,3.43-4.12a2,2,0,0,1,1.23-.76,1.82,1.82,0,0,1,1.52.4c.24.19.47.4.71.6l5,4.35.2.18A2,2,0,0,1,737.23,894Zm-.92-.07a1,1,0,0,0-.34-.64l-.83-.72-4.44-3.77c-.19-.17-.38-.34-.58-.5a.93.93,0,0,0-.51-.24,1,1,0,0,0-.92.42l-4.22,5c-.27.33-.56.64-.83,1a.91.91,0,0,0,.17,1.43l3.36,2.62,2.6,2a1.05,1.05,0,0,0,.47.21,1,1,0,0,0,1-.38c.45-.5.89-1,1.33-1.52l3.36-4a3.43,3.43,0,0,0,.24-.33A.83.83,0,0,0,736.31,893.9Z" transform="translate(-79.57 -835.13)"/><path class="cls-3" d="M744.21,884.18a2.13,2.13,0,0,1-.35,1.48c-.39.58-.79,1.16-1.2,1.73-.88,1.23-1.78,2.46-2.67,3.68l-.48.66a1.7,1.7,0,0,1-2.5.33l-2-1.73L731.19,887a2,2,0,0,1-.7-2.08,1.61,1.61,0,0,1,.27-.63l1-1.29,3-3.93c.32-.42.63-.85.94-1.27a1.62,1.62,0,0,1,2.47-.27c.8.73,1.58,1.49,2.36,2.25l3,3A2.21,2.21,0,0,1,744.21,884.18Zm-.82.15a1.11,1.11,0,0,0-.37-.76l-4.22-4.11-1.13-1.07a.88.88,0,0,0-.58-.27.81.81,0,0,0-.7.34c-.38.52-.76,1-1.15,1.56-.76,1-1.53,2.05-2.3,3.07-.41.55-.85,1.08-1.26,1.63a1.22,1.22,0,0,0-.24.43,1,1,0,0,0,.33,1.06l2.15,1.87,3.43,3s.11.09.16.15a.84.84,0,0,0,1.31-.13c1-1.38,2-2.76,3-4.15.46-.63.89-1.27,1.33-1.9A1,1,0,0,0,743.39,884.33Z" transform="translate(-79.57 -835.13)"/><path class="cls-3" d="M750.09,874.35a2.93,2.93,0,0,1-.39,1.85c-.27.43-.5.89-.76,1.33s-.53.92-.8,1.38-.56,1-.85,1.42c-.4.64-.8,1.29-1.21,1.92a1.31,1.31,0,0,1-1,.64,1.35,1.35,0,0,1-1.14-.43l-1.25-1.26c-1.38-1.35-2.76-2.71-4.15-4a2.3,2.3,0,0,1-.53-2.53,5,5,0,0,1,.46-.76c.86-1.25,1.73-2.49,2.58-3.74.53-.77,1-1.54,1.56-2.3a1.3,1.3,0,0,1,1-.59,1.33,1.33,0,0,1,1.08.41c.23.23.45.48.67.71q2.1,2.26,4.1,4.62A2.64,2.64,0,0,1,750.09,874.35Zm-.7.17a1.2,1.2,0,0,0-.32-.72q-2.28-2.67-4.7-5.21a1.8,1.8,0,0,0-.21-.19.62.62,0,0,0-.88.09,3.48,3.48,0,0,0-.28.39c-.45.68-.88,1.37-1.34,2s-.94,1.4-1.42,2.1L739,874.89a1.12,1.12,0,0,0,.15,1.48l5.24,5.22.14.13a.64.64,0,0,0,.95-.08,3.81,3.81,0,0,0,.29-.41c.36-.57.72-1.15,1.07-1.73s.86-1.42,1.28-2.13.77-1.34,1.16-2A1.33,1.33,0,0,0,749.39,874.52Z" transform="translate(-79.57 -835.13)"/></svg>