<svg id="Livello_1" data-name="Livello 1" xmlns="http://www.w3.org/2000/svg" viewBox="0 0 2286.97 922.98"><defs><style>.cls-1{fill:#00aa82;}.cls-2{fill:none;stroke:#fff;stroke-miterlimit:10;stroke-width:13.57px;}.cls-3{fill:#fff;}</style></defs><title>IOO-logo</title><path class="cls-1" d="M-.18,111.77q0-6.54,6.38-6.54H50.72c2.13,0,3.55.56,4.26,1.67A9.15,9.15,0,0,1,56,111.77V315.56A8.68,8.68,0,0,1,55,320.34c-.71,1.07-2.13,1.6-4.26,1.6H6.2q-6.39,0-6.38-6.38Zm83.12,0q0-6.54,5.92-6.54H234.45q6.09,0,6.08,6.54v40.42q0,6.54-6.08,6.54H189.77V315.56a6.29,6.29,0,0,1-1.67,4.78,6.51,6.51,0,0,1-4.71,1.6H139q-5.47,0-5.48-6.38V158.73H88.86q-5.91,0-5.92-6.54ZM426.69,315.56q2.28,6.38-3.79,6.38H375.79a9.68,9.68,0,0,1-5.48-1.52,8.14,8.14,0,0,1-3.19-4.86l-5.62-22.19H298.28l-5.47,22.19a8.14,8.14,0,0,1-3.19,4.86,9.38,9.38,0,0,1-5.32,1.52H237q-6.07,0-3.8-6.38l64.28-203.79q2.13-6.54,8.51-6.54H353.9q6.39,0,8.51,6.54ZM311.2,241.24h37.38l-14-56.07-4.71-26.44L325,185.17ZM452.83,111.77q0-6.54,6.38-6.54h43.62q6.38,0,6.38,6.54V268.45h64.28q5.93,0,5.93,6.38v40.73q0,6.38-5.93,6.38H459.21q-6.37,0-6.38-6.38Zm160.48,0q0-6.54,6.38-6.54h44.53c2.13,0,3.54.56,4.25,1.67a9.15,9.15,0,0,1,1.06,4.87V315.56a8.68,8.68,0,0,1-1.06,4.78c-.71,1.07-2.12,1.6-4.25,1.6H619.69q-6.39,0-6.38-6.38ZM889.12,315.56q2.28,6.38-3.79,6.38H838.22a9.65,9.65,0,0,1-5.47-1.52,8.15,8.15,0,0,1-3.2-4.86l-5.62-22.19H760.71l-5.47,22.19a8.14,8.14,0,0,1-3.19,4.86,9.37,9.37,0,0,1-5.31,1.52H699.47q-6.08,0-3.8-6.38L760,111.77q2.13-6.54,8.51-6.54h47.87c4.26,0,7.09,2.18,8.52,6.54ZM773.63,241.24H811l-14-56.07-4.72-26.44-4.86,26.44ZM915.26,111.77q0-6.54,6.39-6.54h44.68c1,0,1.92,0,2.73-.08a5.13,5.13,0,0,1,2.28.38,6.36,6.36,0,0,1,2.2,1.83,23.73,23.73,0,0,1,2.66,4.41l51.67,87.08,9.42,19.6-1.67-19.6V111.77a7,7,0,0,1,1.6-4.56,5.78,5.78,0,0,1,4.79-2h43.76a8.43,8.43,0,0,1,4,1.14q2.13,1.14,2.13,5.09v204.1q0,6.38-7,6.38h-36.93a10.71,10.71,0,0,1-5.77-1.6,12,12,0,0,1-4.26-4.78l-59.57-97-8.67-16.72,2,16.57v97.11q0,6.38-6.38,6.38H921.65q-6.39,0-6.39-6.38Z" transform="translate(0.18 -0.3)"/><path class="cls-1" d="M218.3,501.29a82.66,82.66,0,0,1,7-34.35,80.63,80.63,0,0,1,19.22-26.67A87.07,87.07,0,0,1,273.4,423,107,107,0,0,1,345,423a88,88,0,0,1,29,17.32A80.09,80.09,0,0,1,393.23,467a82.93,82.93,0,0,1,7,34.27v58.2a82.44,82.44,0,0,1-7,34.2,79.46,79.46,0,0,1-19.3,26.59,88.82,88.82,0,0,1-28.88,17.25,107.42,107.42,0,0,1-71.65,0,87.58,87.58,0,0,1-28.88-17.25,79.8,79.8,0,0,1-19.22-26.59,82.29,82.29,0,0,1-7-34.2Zm56.09,54.25a41.72,41.72,0,0,0,2.5,14.74A33.49,33.49,0,0,0,284,581.76a32.6,32.6,0,0,0,11,7.52A36.5,36.5,0,0,0,309.34,592a36,36,0,0,0,14.28-2.73,32.8,32.8,0,0,0,10.95-7.52,33.62,33.62,0,0,0,7.06-11.48,41.72,41.72,0,0,0,2.51-14.74v-50.6a42.19,42.19,0,0,0-2.44-14.59,33.22,33.22,0,0,0-7-11.55,32,32,0,0,0-11-7.6,39,39,0,0,0-28.72,0,32,32,0,0,0-11,7.6,34.19,34.19,0,0,0-7.07,11.55,41.28,41.28,0,0,0-2.5,14.59Z" transform="translate(0.18 -0.3)"/><path class="cls-1" d="M433.65,428.34q0-6.52,6.38-6.53h81.3a69.29,69.29,0,0,1,27,5.17,68.5,68.5,0,0,1,21.5,14,64.29,64.29,0,0,1,14.28,20.51,60.24,60.24,0,0,1,5.17,24.62V508a60,60,0,0,1-5.62,25.92,66.36,66.36,0,0,1-15.2,20.74,71.71,71.71,0,0,1-22.34,13.9,74.34,74.34,0,0,1-27.05,5.25H489.87v58.35q0,6.39-6.38,6.39H440q-6.37,0-6.38-6.39Zm80.09,91.95a21.89,21.89,0,0,0,7.74-1.37,19,19,0,0,0,6.23-3.73,17.9,17.9,0,0,0,4.11-5.47,15.23,15.23,0,0,0,1.52-6.76V492.63a15.73,15.73,0,0,0-1.52-6.84,16.53,16.53,0,0,0-4.18-5.47,21.09,21.09,0,0,0-6.23-3.65,21.31,21.31,0,0,0-7.67-1.37H489.87v45Z" transform="translate(0.18 -0.3)"/><path class="cls-1" d="M620.87,428.34q0-6.52,6.38-6.53H756.43q5.91,0,5.92,6.53v40.58q0,6.38-5.92,6.38H677.1v28.27h59.72a7.11,7.11,0,0,1,4.86,1.59q1.83,1.6,1.83,5.1v40.27q0,6.38-6.69,6.38H677.1v29.63h81.6q6.09,0,6.08,6.39v39.2q0,6.39-6.08,6.39H627.25q-6.37,0-6.38-6.39Z" transform="translate(0.18 -0.3)"/><path class="cls-1" d="M801.56,428.34q0-6.52,6.38-6.53h44.68c1,0,1.92,0,2.74-.08a5,5,0,0,1,2.27.38,6.25,6.25,0,0,1,2.2,1.83,23.85,23.85,0,0,1,2.67,4.4l51.67,87.08L923.59,535l-1.68-19.61V428.34a7.09,7.09,0,0,1,1.6-4.56,5.82,5.82,0,0,1,4.79-2h43.77A8.46,8.46,0,0,1,976,423c1.42.76,2.12,2.46,2.12,5.09V632.13q0,6.39-7,6.39H934.23a10.81,10.81,0,0,1-5.78-1.6,11.91,11.91,0,0,1-4.25-4.79l-59.58-97L856,518.46l2,16.57v97.1q0,6.39-6.37,6.39H807.94q-6.39,0-6.38-6.39Z" transform="translate(0.18 -0.3)"/><path class="cls-1" d="M1093.64,501.29a82.65,82.65,0,0,1,7-34.35,80.63,80.63,0,0,1,19.22-26.67A87.17,87.17,0,0,1,1148.73,423a107,107,0,0,1,71.57,0,87.9,87.9,0,0,1,29,17.32,79.82,79.82,0,0,1,19.3,26.75,82.78,82.78,0,0,1,7,34.27v58.2a82.29,82.29,0,0,1-7,34.2,79.18,79.18,0,0,1-19.3,26.59,88.67,88.67,0,0,1-28.87,17.25,107.42,107.42,0,0,1-71.65,0,87.68,87.68,0,0,1-28.88-17.25,79.8,79.8,0,0,1-19.22-26.59,82.28,82.28,0,0,1-7-34.2Zm56.07,54.25a41.72,41.72,0,0,0,2.51,14.74,33.64,33.64,0,0,0,7.07,11.48,32.6,32.6,0,0,0,11,7.52,36.5,36.5,0,0,0,14.36,2.73,35.93,35.93,0,0,0,14.28-2.73,32.66,32.66,0,0,0,10.94-7.52,33.49,33.49,0,0,0,7.07-11.48,41.72,41.72,0,0,0,2.5-14.74v-50.6a42.42,42.42,0,0,0-2.42-14.59,33.39,33.39,0,0,0-7-11.55,31.9,31.9,0,0,0-11-7.6,39,39,0,0,0-28.71,0,32,32,0,0,0-11,7.6,34.35,34.35,0,0,0-7.07,11.55,41.28,41.28,0,0,0-2.51,14.59Z" transform="translate(0.18 -0.3)"/><path class="cls-1" d="M1309,428.34q0-6.52,6.38-6.53H1360c1,0,1.93,0,2.74-.08a5,5,0,0,1,2.28.38,6.27,6.27,0,0,1,2.21,1.83,25.09,25.09,0,0,1,2.66,4.4l51.66,87.08L1431,535l-1.68-19.61V428.34a7.09,7.09,0,0,1,1.6-4.56,5.82,5.82,0,0,1,4.79-2h43.76a8.47,8.47,0,0,1,4,1.14q2.11,1.14,2.12,5.09V632.13q0,6.39-7,6.39h-36.93a10.78,10.78,0,0,1-5.77-1.6,11.84,11.84,0,0,1-4.25-4.79l-59.58-97-8.66-16.72,2,16.57v97.1q0,6.39-6.39,6.39h-43.61q-6.39,0-6.38-6.39Z" transform="translate(0.18 -0.3)"/><path class="cls-1" d="M1531.15,428.34q0-6.52,6.38-6.53h43.62q6.38,0,6.38,6.53V585h64.28q5.94,0,5.93,6.39v40.72q0,6.39-5.93,6.39H1537.53q-6.37,0-6.38-6.39Z" transform="translate(0.18 -0.3)"/><path class="cls-1" d="M1691.63,428.34q0-6.52,6.38-6.53h44.52c2.13,0,3.55.56,4.26,1.67a9.13,9.13,0,0,1,1.06,4.86V632.13a8.7,8.7,0,0,1-1.06,4.79c-.71,1.06-2.13,1.6-4.26,1.6H1698q-6.39,0-6.38-6.39Z" transform="translate(0.18 -0.3)"/><path class="cls-1" d="M1793.44,428.34q0-6.52,6.38-6.53h44.68c1,0,1.93,0,2.74-.08a5,5,0,0,1,2.28.38,6.25,6.25,0,0,1,2.2,1.83,23.92,23.92,0,0,1,2.66,4.4l51.67,87.08,9.42,19.61-1.67-19.61V428.34a7,7,0,0,1,1.6-4.56,5.8,5.8,0,0,1,4.78-2H1964a8.43,8.43,0,0,1,4,1.14q2.13,1.14,2.13,5.09V632.13q0,6.39-7,6.39h-36.93a10.84,10.84,0,0,1-5.78-1.6,11.91,11.91,0,0,1-4.25-4.79l-59.57-97-8.66-16.72,2,16.57v97.1q0,6.39-6.38,6.39h-43.62q-6.37,0-6.38-6.39Z" transform="translate(0.18 -0.3)"/><path class="cls-1" d="M2015.62,428.34q0-6.52,6.38-6.53h129.17q5.92,0,5.93,6.53v40.58q0,6.38-5.93,6.38h-79.33v28.27h59.73a7.13,7.13,0,0,1,4.86,1.59q1.83,1.6,1.83,5.1v40.27q0,6.38-6.69,6.38h-59.73v29.63h81.61q6.08,0,6.08,6.39v39.2q0,6.39-6.08,6.39H2022q-6.37,0-6.38-6.39Z" transform="translate(0.18 -0.3)"/><path class="cls-2" d="M1211.38,271l1024.15.11A44.47,44.47,0,0,1,2280,315.58v395A44.47,44.47,0,0,1,2235.53,755H341.12" transform="translate(0.18 -0.3)"/><path class="cls-3" d="M1212.4,291.41A20.41,20.41,0,1,1,1232.81,271,20.4,20.4,0,0,1,1212.4,291.41Z" transform="translate(0.18 -0.3)"/><path class="cls-3" d="M342.14,734.62A20.41,20.41,0,1,0,362.55,755,20.41,20.41,0,0,0,342.14,734.62Z" transform="translate(0.18 -0.3)"/><path class="cls-3" d="M612.34,841.33v80.8h-15V853.91H580.25V841.33Z" transform="translate(0.18 -0.3)"/><path class="cls-3" d="M691.4,882.3a21.8,21.8,0,0,1,5.89,15.59,23.8,23.8,0,0,1-3.58,12.81,24.56,24.56,0,0,1-10.79,9.18q-7.21,3.39-17.6,3.4a56.28,56.28,0,0,1-16.68-2.48A42.64,42.64,0,0,1,635,913.93l6.47-11.66a32.44,32.44,0,0,0,10.67,5.83,40,40,0,0,0,13,2.14q8,0,12.52-3.29a10.47,10.47,0,0,0,4.56-9,10.33,10.33,0,0,0-4.33-8.83Q673.52,886,664.63,886h-7.39V875.73l18.35-21.82h-36.7V841.33h55.05v10l-19.62,23.32Q685.51,876.07,691.4,882.3Z" transform="translate(0.18 -0.3)"/><path class="cls-3" d="M763.31,884h31.74v12H763.31Z" transform="translate(0.18 -0.3)"/><path class="cls-3" d="M889.35,841.33v80.8h-15V853.91H857.26V841.33Z" transform="translate(0.18 -0.3)"/><path class="cls-3" d="M989,903.77H974.64v18.36H960.1V903.77H915.78V893.39l39.82-52.06h16l-37.51,49.75h26.43V874.8h14.08v16.28H989Z" transform="translate(0.18 -0.3)"/><path class="cls-3" d="M1130.22,922.13l-.11-53.56-26.55,44.32h-6.69l-26.55-43.63v52.87H1056v-80.8h12.35l32.09,53.56L1132,841.33h12.35l.11,80.8Z" transform="translate(0.18 -0.3)"/><path class="cls-3" d="M1230.18,903.43h-40.4l-8,18.7h-15.47l36.36-80.8h14.77l36.47,80.8h-15.69Zm-5-11.78L1210,856.34l-15.12,35.31Z" transform="translate(0.18 -0.3)"/><path class="cls-3" d="M1328.63,922.13l-16.5-23.67a29.85,29.85,0,0,1-3.12.12h-18.24v23.55h-15v-80.8H1309a44.84,44.84,0,0,1,18.29,3.46,26.59,26.59,0,0,1,12,9.93,27.78,27.78,0,0,1,4.15,15.35,27.41,27.41,0,0,1-4.44,15.7,26.42,26.42,0,0,1-12.75,9.81l18.58,26.55Zm-5.42-64q-5.09-4.15-14.89-4.15h-17.55v32.2h17.55q9.81,0,14.89-4.21t5.07-11.95Q1328.28,862.34,1323.21,858.18Z" transform="translate(0.18 -0.3)"/><path class="cls-3" d="M1434.47,909.43v12.7h-68.91v-10L1413.12,854h-46.75v-12.7H1433v10l-47.55,58.06Z" transform="translate(0.18 -0.3)"/><path class="cls-3" d="M1474.29,917.91A39.72,39.72,0,0,1,1458.71,903a42.89,42.89,0,0,1,0-42.59,39.72,39.72,0,0,1,15.58-14.89,49,49,0,0,1,44.55,0,39.88,39.88,0,0,1,15.58,14.84,43.1,43.1,0,0,1,0,42.7,39.86,39.86,0,0,1-15.58,14.83,48.88,48.88,0,0,1-44.55,0Zm36.82-11.42a26.38,26.38,0,0,0,10.16-10.16,30.73,30.73,0,0,0,0-29.2A26.31,26.31,0,0,0,1511.11,857a30.88,30.88,0,0,0-29.09,0,26.22,26.22,0,0,0-10.15,10.16,30.66,30.66,0,0,0,0,29.2A26.29,26.29,0,0,0,1482,906.49a31,31,0,0,0,29.09,0Z" transform="translate(0.18 -0.3)"/><path class="cls-3" d="M1663.69,909.43v12.7h-59.55v-10l32.08-30.47q5.43-5.19,7.33-9.06a17.24,17.24,0,0,0,1.91-7.67q0-5.65-3.81-8.66t-11.2-3q-12.35,0-18.93,8.42l-10.5-8.07a30.93,30.93,0,0,1,12.75-9.87,44.16,44.16,0,0,1,18-3.52q13.15,0,21,6.23t7.85,17a28.29,28.29,0,0,1-2.77,12.35q-2.77,5.76-10.62,13.15l-21.59,20.55Z" transform="translate(0.18 -0.3)"/><path class="cls-3" d="M1699.93,918.38a33.23,33.23,0,0,1-12-14.32q-4.4-9.4-4.39-22.33t4.39-22.34a33.15,33.15,0,0,1,12-14.31,33.15,33.15,0,0,1,34.69,0,33.06,33.06,0,0,1,12.06,14.31q4.38,9.42,4.39,22.34t-4.39,22.33a33.15,33.15,0,0,1-12.06,14.32,33.15,33.15,0,0,1-34.69,0Zm31-15.3q5-7.16,5-21.35t-5-21.35a16.52,16.52,0,0,0-27.23,0q-5,7.15-5,21.35t5,21.35a16.52,16.52,0,0,0,27.23,0Z" transform="translate(0.18 -0.3)"/><path class="cls-3" d="M1830.71,909.43v12.7h-59.56v-10l32.09-30.47q5.41-5.19,7.32-9.06a17.24,17.24,0,0,0,1.91-7.67q0-5.65-3.81-8.66t-11.2-3q-12.35,0-18.92,8.42L1768,853.57a31,31,0,0,1,12.76-9.87,44.11,44.11,0,0,1,17.94-3.52q13.17,0,21,6.23t7.85,17a28.15,28.15,0,0,1-2.77,12.35q-2.77,5.76-10.62,13.15l-21.58,20.55Z" transform="translate(0.18 -0.3)"/><path class="cls-3" d="M1878.83,841.33v80.8h-15V853.91h-17.08V841.33Z" transform="translate(0.18 -0.3)"/><path class="cls-3" d="M642.37,82.81,641.06,82c-.74-.49-1.47-1-2.2-1.49a.23.23,0,0,1-.12-.24c0-.65,0-1.3,0-2a.24.24,0,0,1,.15-.22l1.29-1c.52-.39,1-.77,1.57-1.17q1.29-1,2.55-2c1.24-1,2.46-2,3.69-3l.16-.14,3.06,2.56c-2.47,2-5,4-7.63,5.84.67.52,1.38,1,2.07,1.48,2.61-1.78,5.13-3.67,7.6-5.66l3.26,2.59c-.25.2-.49.4-.73.58-.57.43-1.13.86-1.71,1.28s-1.3,1-2,1.41L650,82.33c-.5.33-1,.66-1.51,1l-2.26,1.4a8.13,8.13,0,0,1-2.9,1.11,11.85,11.85,0,0,1-3.36.13,8.69,8.69,0,0,1-2.79-.71c-.5-.25-1-.53-1.46-.82a94.69,94.69,0,0,1-7.84-5.32c-2.09-1.56-4.11-3.19-6.08-4.9-2.41-2.09-4.73-4.29-7-6.57a114.56,114.56,0,0,1-8.23-9.38,101.65,101.65,0,0,1-6.94-10,8.74,8.74,0,0,1-1.17-3.44,11.66,11.66,0,0,1,.16-4,6.92,6.92,0,0,1,.8-2.11c.59-1,1.17-1.92,1.77-2.87.42-.68.87-1.36,1.31-2l1.19-1.71c.46-.66.92-1.32,1.41-2s1.15-1.53,1.74-2.29,1-1.29,1.53-1.92c.66-.8,1.32-1.59,2-2.37s1.4-1.61,2.13-2.4c.87-.95,1.77-1.89,2.66-2.82,1.34-1.41,2.75-2.74,4.18-4.06.87-.81,1.77-1.61,2.68-2.39s2.1-1.77,3.16-2.64c.58-.48,1.19-.94,1.79-1.4s1-.77,1.51-1.14.94-.69,1.41-1l1.28-.9L632.35,4l2-1.33,1.3-.79c.4-.24.8-.47,1.21-.69A7.07,7.07,0,0,1,639,.52a10.62,10.62,0,0,1,2.81-.2,9.46,9.46,0,0,1,4.53,1.36c2.18,1.37,4.34,2.79,6.42,4.3q3.49,2.54,6.78,5.34,3.63,3.09,7,6.46T673.17,25A106,106,0,0,1,680.64,35c.74,1.11,1.44,2.26,2.15,3.4a7.83,7.83,0,0,1,1.09,3.18,11.73,11.73,0,0,1,0,3,8.62,8.62,0,0,1-.78,2.87c-.22.43-.48.85-.73,1.27s-.58,1-.89,1.44c-.43.69-.87,1.38-1.32,2.06s-.72,1.08-1.1,1.62-.89,1.27-1.34,1.89-1.07,1.46-1.61,2.18c-.42.55-.85,1.1-1.29,1.64-.66.81-1.31,1.62-2,2.41q-1.49,1.73-3,3.42c-1.57,1.72-3.21,3.38-4.89,5s-3.55,3.31-5.41,4.86l-1.32,1.11L655,73.59l.13-.12a130.75,130.75,0,0,0,9.9-9.22c1.89-2,3.74-3.94,5.49-6,1.08-1.29,2.16-2.59,3.22-3.9.64-.79,1.26-1.61,1.87-2.43.76-1,1.51-2.06,2.25-3.1.52-.73,1-1.49,1.52-2.24s.81-1.28,1.25-1.9a2.59,2.59,0,0,0,0-2.83,127.5,127.5,0,0,0-8-10.79,148.79,148.79,0,0,0-11.82-12.65Q656.21,14,651.2,10c-2.15-1.71-4.34-3.35-6.59-4.91-.72-.49-1.43-1-2.17-1.46a2.36,2.36,0,0,0-2.6,0c-.87.54-1.73,1.12-2.58,1.69s-1.47,1-2.2,1.54-1.37,1-2,1.5-1.59,1.22-2.38,1.85-1.45,1.15-2.16,1.75c-1,.83-2,1.68-2.94,2.53-2.72,2.38-5.3,4.9-7.81,7.49q-3,3.14-5.84,6.45-1.93,2.27-3.77,4.62c-.76,1-1.5,2-2.23,3-.6.8-1.19,1.61-1.76,2.43s-1,1.51-1.55,2.27l-.74,1.12a2.48,2.48,0,0,0-.33,2.38,2.3,2.3,0,0,0,.23.44c1.36,2.1,2.78,4.14,4.26,6.14,2.55,3.42,5.28,6.7,8.15,9.86q3.5,3.84,7.27,7.4a135.53,135.53,0,0,0,11.81,10q3.06,2.29,6.25,4.38l.44.29a2.48,2.48,0,0,0,2,.29l.25-.08A1.44,1.44,0,0,0,642.37,82.81Z" transform="translate(0.18 -0.3)"/><path class="cls-3" d="M636.47,67.16l.47-.43-5.57-5.1,3.26-3.09.68.64L641.65,65a.45.45,0,0,1,.17.39c0,.79,0,1.59,0,2.39a.34.34,0,0,1-.13.28c-.62.53-1.22,1.06-1.84,1.58-.81.69-1.63,1.38-2.46,2.06-.68.56-1.38,1.11-2.07,1.66l-2.52,2-.37.27-.16-.11q-3.39-2.69-6.61-5.57a.51.51,0,0,1-.19-.45c0-.75,0-1.51,0-2.27a.37.37,0,0,1,.14-.3l3.62-3.32a.38.38,0,0,1,.28-.11h2.8a.44.44,0,0,1,.29.14l3.8,3.44S636.43,67.13,636.47,67.16Zm-5.69.71-.6.49,2.42,2.13.59-.5Z" transform="translate(0.18 -0.3)"/><path class="cls-3" d="M636.11,12.51v-2.1a.23.23,0,0,1,.11-.22c.65-.5,1.3-1,2-1.49l2.57-1.88L642,6l.53-.37,2,1.44q3.36,2.46,6.55,5.11c.85.7,1.67,1.42,2.51,2.12a.37.37,0,0,1,.15.33c0,.67,0,1.35,0,2a.31.31,0,0,1-.12.26c-.91.82-1.82,1.63-2.72,2.46l-3.25,3-.14.12-3-2.74,4.72-4.15-.25-.23c-.27.23-.54.44-.8.67l-2.45,2.13a.34.34,0,0,1-.21.08H643a.43.43,0,0,1-.31-.14c-.83-.72-1.64-1.45-2.47-2.16-1.32-1.13-2.65-2.24-4-3.36Zm9.9.35L642.42,10l-1.89,1.48,3.59,3Z" transform="translate(0.18 -0.3)"/><path class="cls-3" d="M630.71,59l-3.18,3.05c-1.32-1.27-2.65-2.54-3.95-3.88l-2,2c1.67,1.73,3.43,3.38,5.18,5.07-1,1-2.08,1.9-3.12,2.87l-.62-.57c-2-1.87-3.92-3.79-5.81-5.75a.6.6,0,0,1-.18-.44c0-.84,0-1.67,0-2.51a.43.43,0,0,1,.11-.3L623,52.44q2.06-2.16,4.13-4.3l.2-.2,3.2,3.23-3.86,3.92Z" transform="translate(0.18 -0.3)"/><path class="cls-3" d="M624.72,38.81c-3.46-3.63-6.81-7.27-10.08-11L617.21,25l1.31,1.42c.17-.16.33-.29.47-.44l2.46-2.55a.4.4,0,0,1,.35-.15h2.27a.37.37,0,0,1,.27.13l2.11,2.09c1.36,1.35,2.71,2.71,4.08,4.05a.57.57,0,0,1,.17.42c0,.77,0,1.54,0,2.32a.45.45,0,0,1-.15.35l-5.7,5.95A1.52,1.52,0,0,0,624.72,38.81ZM623,27.48l-1.75,1.83,3.38,3.55L626.42,31Z" transform="translate(0.18 -0.3)"/><path class="cls-3" d="M643.69,20l-2.87,2.64q-3.24-3-6.56-5.93l-1.94,1.74,6.53,6.05L636,27.18l-9.33-8.85a1,1,0,0,1,.18-.17c1.16-1.05,2.31-2.11,3.48-3.15.64-.56,1.3-1.1,1.95-1.66l.13-.1a1,1,0,0,1,.87-.34c.68,0,1.37,0,2.05,0a.59.59,0,0,1,.41.14q3.43,2.88,6.76,5.85Z" transform="translate(0.18 -0.3)"/><path class="cls-3" d="M609.14,37.38l2.28-2.84c1.84,2.25,3.7,4.44,5.64,6.62l1.75-2-5.75-6.58c.8-1,1.61-1.88,2.42-2.82a.86.86,0,0,1,.14.13q3.48,3.93,7.07,7.75a.61.61,0,0,1,.19.48c0,.76,0,1.52,0,2.27a.55.55,0,0,1-.17.45l-4,4.44-1.38,1.56-.12.12Q613,42.34,609.14,37.38Z" transform="translate(0.18 -0.3)"/><path class="cls-3" d="M610.52,48.86l4-4.78,2.61,3c-.22.26-.42.51-.64.75q-1.59,1.83-3.19,3.64l-1.44,1.66a.3.3,0,0,1-.25.12l-1.93,0a.36.36,0,0,1-.29-.13c-2.07-2.58-4-5.22-5.92-7.95a.54.54,0,0,1-.1-.33c0-.81,0-1.61,0-2.42a.57.57,0,0,1,.12-.37c.43-.6.85-1.22,1.27-1.82l1-1.4,1.12-1.52,1-1.35,2.31,3-3.72,4.81C607.82,45.46,609.14,47.17,610.52,48.86Z" transform="translate(0.18 -0.3)"/><path class="cls-3" d="M612.2,56.31c3.7-4.21,7.44-8.34,11.24-12.44l3.12,3.26L615,59.42Z" transform="translate(0.18 -0.3)"/><path class="cls-3" d="M645.91,65.7l3.22,2.86a158,158,0,0,1-12.77,10.12l-3.21-2.42c2.22-1.69,4.39-3.4,6.51-5.16S643.85,67.54,645.91,65.7Z" transform="translate(0.18 -0.3)"/><path class="cls-3" d="M635.48,27.72l-2.92,2.89-9.22-9.1,2.79-2.71C629.28,21.76,632.38,24.72,635.48,27.72Z" transform="translate(0.18 -0.3)"/><path class="cls-3" d="M638.92,51.12a2.15,2.15,0,0,1-1.53-.65L635.89,49l-4.13-4.11a2.22,2.22,0,0,1-.69-1.7,2.06,2.06,0,0,1,.56-1.39c.73-.76,1.46-1.52,2.2-2.27,1.09-1.13,2.2-2.25,3.29-3.38a2.36,2.36,0,0,1,1.11-.67,2.17,2.17,0,0,1,2,.44l.19.18L646,41.67A2.29,2.29,0,0,1,646.7,43a2.17,2.17,0,0,1-.5,1.76,3.45,3.45,0,0,1-.26.28l-5.4,5.45A2.15,2.15,0,0,1,638.92,51.12Zm-.13-14.68a.92.92,0,0,0-.61.18c-.11.09-.22.18-.31.27l-4,4.07c-.49.49-1,1-1.44,1.48a1.15,1.15,0,0,0-.31,1.19,1.48,1.48,0,0,0,.4.59q2.06,2,4.09,4.07l1.49,1.46a1.17,1.17,0,0,0,1.15.31,1.48,1.48,0,0,0,.62-.4l5-5,.55-.57a1.15,1.15,0,0,0,0-1.6c-.07-.07-.13-.14-.2-.2l-5.45-5.39a1.62,1.62,0,0,0-.2-.18A1.06,1.06,0,0,0,638.79,36.44Z" transform="translate(0.18 -0.3)"/><path class="cls-3" d="M655.71,34.08a2.1,2.1,0,0,1-.59,1.43c-1.83,1.9-3.67,3.8-5.5,5.71a2.14,2.14,0,0,1-3,.07c-.68-.65-1.34-1.33-2-2l-3.7-3.65a2.28,2.28,0,0,1-.7-1.17,2,2,0,0,1,.5-1.91c.53-.58,1.1-1.13,1.67-1.68,1.29-1.28,2.59-2.55,3.9-3.83a2.31,2.31,0,0,1,1-.62,2.2,2.2,0,0,1,2.13.45c.31.26.6.55.89.84L655,32.41A2.26,2.26,0,0,1,655.71,34.08Zm-1-.07a1.08,1.08,0,0,0-.26-.74c-.06-.08-.13-.14-.19-.21l-4.69-4.63c-.25-.26-.52-.5-.78-.75a1.2,1.2,0,0,0-1-.35,1.24,1.24,0,0,0-.72.4L644,30.79l-2.39,2.38a1.12,1.12,0,0,0-.37.94,1.22,1.22,0,0,0,.41.79l5.58,5.5a1.29,1.29,0,0,0,.17.16,1.14,1.14,0,0,0,1.51,0l.19-.19,4.26-4.41,1-1.05A1.17,1.17,0,0,0,654.7,34Z" transform="translate(0.18 -0.3)"/><path class="cls-3" d="M648.35,60.08a2.14,2.14,0,0,1-1.51-.54L645,57.82l-3.89-3.73a2.09,2.09,0,0,1-.64-2.09,2.17,2.17,0,0,1,.61-1l4.28-4.29,1.27-1.31a2.07,2.07,0,0,1,1.2-.63,2.12,2.12,0,0,1,1.9.64l3.55,3.56c.66.67,1.32,1.34,2,2a2.14,2.14,0,0,1,.63,1.26,2.05,2.05,0,0,1-.57,1.78c-.84.86-1.69,1.72-2.54,2.57s-2,1.93-2.94,2.89A2.17,2.17,0,0,1,648.35,60.08Zm-.13-14.35a1.22,1.22,0,0,0-.9.4q-1.62,1.65-3.26,3.28c-.74.76-1.49,1.51-2.24,2.26a1.13,1.13,0,0,0-.35,1.13,1.42,1.42,0,0,0,.4.62l2.42,2.32c1,1,2.08,2,3.12,3a1.25,1.25,0,0,0,.56.34,1.19,1.19,0,0,0,1.2-.34L652.9,55c.57-.57,1.13-1.16,1.69-1.73a1.13,1.13,0,0,0,.34-.87,1.24,1.24,0,0,0-.42-.85l-5.44-5.44-.18-.16A1.11,1.11,0,0,0,648.22,45.73Z" transform="translate(0.18 -0.3)"/><path class="cls-3" d="M664.45,43.46a2.26,2.26,0,0,1-.6,1.37c-1.33,1.46-2.65,2.93-4,4.39-.4.43-.81.86-1.23,1.28a2,2,0,0,1-2.75.1l-.31-.3q-2.65-2.69-5.32-5.36a2.34,2.34,0,0,1-.71-1.35,2.15,2.15,0,0,1,.59-1.84l3.12-3.25c.77-.8,1.55-1.59,2.31-2.4a2,2,0,0,1,3,0c1,1,2,2.06,2.94,3.09.77.82,1.53,1.65,2.3,2.48A2.41,2.41,0,0,1,664.45,43.46Zm-.93-.17a1.27,1.27,0,0,0-.37-.94l-1.59-1.72c-1.2-1.26-2.41-2.51-3.6-3.78a1.1,1.1,0,0,0-1.71,0c-.65.71-1.33,1.4-2,2.1-1.1,1.14-2.2,2.29-3.31,3.42a1.25,1.25,0,0,0,0,1.79c1.8,1.8,3.58,3.62,5.37,5.43l.2.2a1.07,1.07,0,0,0,.92.25,1.23,1.23,0,0,0,.65-.42l3.63-3.92c.49-.53,1-1.08,1.46-1.62A1.17,1.17,0,0,0,663.52,43.29Z" transform="translate(0.18 -0.3)"/><path class="cls-3" d="M656.83,17.93a2.17,2.17,0,0,1,1.53.59Q661,21,663.6,23.65a2.14,2.14,0,0,1,0,2.94c-1,1-2,2.11-3,3.17L658.44,32a2.06,2.06,0,0,1-1.35.65,2,2,0,0,1-1.64-.64c-.85-.85-1.71-1.71-2.57-2.55s-2-1.95-3-2.93a2,2,0,0,1-.59-2,1.82,1.82,0,0,1,.56-.9l1.22-1.16,4.16-3.86A2.31,2.31,0,0,1,656.83,17.93Zm0,.92a1.09,1.09,0,0,0-.82.33c-.27.24-.54.5-.8.75-1.5,1.41-3,2.82-4.49,4.21a1.16,1.16,0,0,0,0,1.89c.52.45,1,.94,1.48,1.42l3.86,3.83a1.14,1.14,0,0,0,1.72,0c.5-.55,1-1.08,1.53-1.62l3.56-3.72a1.42,1.42,0,0,0,.28-.41,1,1,0,0,0-.23-1.17l-.84-.86-4.44-4.33A1.14,1.14,0,0,0,656.85,18.85Z" transform="translate(0.18 -0.3)"/><path class="cls-3" d="M665.59,42a1.77,1.77,0,0,1-1.28-.6c-.48-.54-1-1.08-1.47-1.61l-4-4.18a2.15,2.15,0,0,1-.57-1,1.91,1.91,0,0,1,.33-1.65c.24-.31.52-.59.78-.88,1.56-1.66,3.12-3.31,4.67-5a1.86,1.86,0,0,1,1.06-.62,1.63,1.63,0,0,1,1.56.51c.52.56,1,1.13,1.55,1.7,1.12,1.29,2.23,2.59,3.35,3.87a2.3,2.3,0,0,1,.51,2.21,2.18,2.18,0,0,1-.44.82c-.62.77-1.24,1.54-1.87,2.3s-1.26,1.53-1.9,2.28c-.33.4-.67.79-1,1.19A1.62,1.62,0,0,1,665.59,42Zm5.79-8a1.13,1.13,0,0,0-.33-.77l-3.88-4.43c-.34-.38-.7-.75-1-1.13a.86.86,0,0,0-1.29,0c-.15.17-.31.32-.46.49l-3.66,3.95c-.38.42-.78.82-1.16,1.24a1.23,1.23,0,0,0-.26.42,1,1,0,0,0,.27,1.1c.94,1,1.88,2,2.8,3s1.72,1.87,2.58,2.8a.8.8,0,0,0,1.31,0l.41-.48c.69-.81,1.39-1.62,2.07-2.44s1.37-1.65,2-2.47c.14-.18.27-.36.41-.53A1.07,1.07,0,0,0,671.38,34Z" transform="translate(0.18 -0.3)"/><path class="cls-3" d="M664.58,61.43a1.86,1.86,0,0,1-.56,1.22c-.64.66-1.29,1.33-1.95,2-1.16,1.13-2.33,2.24-3.49,3.35A2,2,0,0,1,656,68c-.36-.31-.7-.63-1.05-.95l-4.61-4.25a1.87,1.87,0,0,1-.58-.89,1.85,1.85,0,0,1,.54-1.86c.61-.59,1.22-1.17,1.82-1.77q1.9-1.89,3.79-3.8a2,2,0,0,1,1.29-.65,1.85,1.85,0,0,1,1.48.54c.22.21.44.44.65.66l4.64,4.79.18.19A2,2,0,0,1,664.58,61.43Zm-.92-.15a.89.89,0,0,0-.28-.66c-.25-.27-.51-.53-.77-.79-1.35-1.39-2.71-2.77-4.07-4.16l-.54-.55a.93.93,0,0,0-.49-.28,1,1,0,0,0-1,.34l-4.66,4.65-.91.88a1,1,0,0,0-.33.68,1,1,0,0,0,.37.76l3.12,2.91,2.41,2.23a1.13,1.13,0,0,0,.45.26,1,1,0,0,0,1-.3c.49-.46,1-.92,1.45-1.39l3.71-3.68a2.52,2.52,0,0,0,.27-.3A.86.86,0,0,0,663.66,61.28Z" transform="translate(0.18 -0.3)"/><path class="cls-3" d="M672.4,52.31a2.18,2.18,0,0,1-.48,1.44q-.66.82-1.35,1.62-1.49,1.73-3,3.43c-.17.2-.36.4-.53.61a1.69,1.69,0,0,1-2.52.1c-.62-.63-1.22-1.27-1.83-1.9L659.18,54a2,2,0,0,1-.52-2.14,1.54,1.54,0,0,1,.33-.6l1.1-1.2,3.33-3.65,1-1.18a1.62,1.62,0,0,1,2.49,0c.73.8,1.44,1.62,2.14,2.45.93,1.08,1.83,2.17,2.75,3.26A2.23,2.23,0,0,1,672.4,52.31Zm-.83.07a1.15,1.15,0,0,0-.3-.79l-3.84-4.47-1-1.16a.87.87,0,0,0-.55-.32.79.79,0,0,0-.72.28l-1.29,1.45-2.57,2.85c-.46.51-.94,1-1.4,1.5a1.25,1.25,0,0,0-.28.41,1,1,0,0,0,.23,1.09l2,2.05L665,58.59l.15.16a.84.84,0,0,0,1.31,0l3.4-3.86c.51-.58,1-1.19,1.49-1.78A1.08,1.08,0,0,0,671.57,52.38Z" transform="translate(0.18 -0.3)"/><path class="cls-3" d="M679.13,43a3,3,0,0,1-.55,1.81c-.3.41-.58.84-.87,1.26l-.93,1.3-1,1.34-1.37,1.81a1.31,1.31,0,0,1-1.05.54,1.36,1.36,0,0,1-1.1-.53l-1.13-1.36c-1.26-1.47-2.5-3-3.77-4.4a2.3,2.3,0,0,1-.3-2.57,4,4,0,0,1,.53-.71c1-1.17,1.93-2.33,2.9-3.5.59-.71,1.17-1.44,1.76-2.15a1.32,1.32,0,0,1,2.08,0c.21.25.41.51.61.77q1.89,2.45,3.67,5A2.55,2.55,0,0,1,679.13,43Zm-.71.11a1.13,1.13,0,0,0-.26-.75c-1.35-1.9-2.76-3.77-4.21-5.6a2,2,0,0,0-.19-.22.64.64,0,0,0-.89,0c-.11.11-.21.24-.31.36l-1.51,1.92c-.53.66-1.07,1.31-1.61,2s-1,1.17-1.45,1.75a1.13,1.13,0,0,0,0,1.49c1.59,1.88,3.17,3.77,4.76,5.66a.86.86,0,0,0,.13.14.63.63,0,0,0,1,0c.12-.12.22-.25.33-.38.4-.55.81-1.09,1.22-1.63l1.47-2c.45-.63.88-1.27,1.32-1.9A1.37,1.37,0,0,0,678.42,43.15Z" transform="translate(0.18 -0.3)"/></svg>