<?xml version="1.0" encoding="utf-8"?>
<!-- Generator: Adobe Illustrator 22.1.0, SVG Export Plug-In . SVG Version: 6.00 Build 0)  -->
<svg version="1.1" id="Livello_1" xmlns="http://www.w3.org/2000/svg" xmlns:xlink="http://www.w3.org/1999/xlink" x="0px" y="0px"
	 viewBox="0 0 6631 2102.8" style="enable-background:new 0 0 6631 2102.8;" xml:space="preserve">
<style type="text/css">
	.st0{fill:#FFFFFF;}
	.st1{fill:#00BC0D;}
	.st2{fill:#D20000;}
</style>
<g>
	<path class="st0" d="M642.3,0.6c3.8,0.5,7.7,1.5,11.5,1.5c1098.3,0.1,2196.6,0.1,3295,0.1c673.6,0,1347.2,0,2020.7,0
		c77.1,0,154.1-0.5,231.2,0.1c70.4,0.5,137.6,15.8,199.9,49.2c116.9,62.6,190.7,158.9,220.4,288c6.7,29,9.6,59.4,9.7,89.1
		c1,148.7,0.4,297.5,0.4,446.2c0,3.4,0,6.8,0,10.8c-78,0-155.2,0-233.6,0c0-3.8,0-7.5,0-11.2c0-147.2,0-294.3,0-441.5
		c0-90.5-57.5-166.5-144.9-189.9c-17.8-4.8-36.7-6.7-55.2-6.8c-111.8-0.8-223.5-0.9-335.3-0.9c-1734.6,0-3469.3,0-5203.9,0
		c-78,0-156,0.4-234-0.1c-57.4-0.4-104.1,22.4-142.1,64c-33,36.2-49.4,79.6-49.4,128.6c-0.1,415.6-0.1,831.2,0,1246.7
		c0,105.7,85,191.8,190.5,193.5c3.5,0.1,6.9,0.1,10.4,0.1c1081.3,0.1,2162.5,0.2,3243.8,0.3c2.8,0,5.6,0,9,0c0-26.5,0-52.5,0-79.6
		c-3.2,0-6.6,0-9.9,0c-87.5,0-174.9,0-262.4,0.1c-6,0-10.5-1.3-14.9-5.8c-33.7-34.1-67.9-67.9-101.5-102.1c-3.1-3.1-5.4-8.6-5.4-13
		c-0.3-179.1-0.3-358.1,0-537.2c0-4.7,2.5-10.4,5.8-13.8c33.4-34,67.2-67.7,101.1-101.2c3-2.9,8-5.3,12-5.3
		c167.7-0.3,335.4-0.2,503.1-0.2c1.8,0,3.6,0,5.8,0c0,363.9,0,727,0,1091.4c-3.7,0-7.6,0-11.6,0c-813.2,0-1626.3,0-2439.5,0
		c-271.6,0-543.2,0-814.7,0c-73.6,0-147.2,0.2-220.7,0.1c-110.9-0.2-208.9-35.4-291.7-109.5c-77.4-69.3-123.5-156-138.5-259
		c-0.8-5.5-2.3-10.8-3.5-16.2C0,1272.6,0,828,0,383.3c1.4-7.2,3.1-14.4,4.3-21.6c13.3-79.9,45.5-151.2,98.8-212.3
		C175.1,67,265.5,18.3,374.3,4.2c7.3-0.9,14.5-2.4,21.7-3.6C478.1,0.6,560.2,0.6,642.3,0.6z M3518.8,1244.3c0,103.5,0,206.6,0,309.9
		c56.2,0,111.9,0,168,0c0-103.4,0-206.5,0-309.9C3630.6,1244.3,3574.9,1244.3,3518.8,1244.3z"/>
	<path class="st0" d="M6359.7,1788.4c-3.3,0-6.6,0-9.9,0c-70.7,0-141.5-0.1-212.2,0.2c-6.9,0-11.7-2-16.5-6.9
		c-33.1-33.8-66.6-67.3-99.8-101.1c-2.7-2.8-5.1-7.4-5.1-11.2c-0.2-218.5-0.2-437-0.2-655.5c0-1.5,0-3,0-5.1c74.8,0,148.8,0,224,0
		c0,180.9,0,361.9,0,543.3c53.1,0,105,0,157.7,0c0-181.5,0-362.6,0-544.3c77.9,0,155.1,0,233.5,0c0,3.4,0,6.7,0,10.1
		c0,221.4,2,442.7-0.7,664.1c-1.8,149.1-68.4,266.5-191.5,350.9c-54.8,37.6-115.9,59.6-181.9,67.4c-17.5,2.1-35.2,3.3-52.8,3.3
		c-68.5,0.4-137,0.2-205.6,0.1c-640.2-0.7-1280.5-1.4-1920.7-2.1c-3.1,0-6.3,0-10.2,0c0-77.5,0-154.6,0-233.1c3.7,0,7.7,0,11.6,0
		c711.1,0,1422.2,0,2133.4,0.1c52.2,0,94.3-22,130.3-57.8c6.2-6.2,11.5-13.3,17.3-19.9C6360.3,1790.1,6360,1789.2,6359.7,1788.4z
		 M5383.9,2067.3c2.2,0.1,4.4,0.2,6.6,0.2c207.5,0,414.9,0,622.4,0c2.7,0,5.5-0.3,8.4-0.5c0-54.4,0-108.2,0-162.5c-4.2,0-7.6,0-11,0
		c-205.3,0-410.5,0-615.8,0c-3.5,0-6.9,0.2-10.4,0.3c-1.2-0.1-2.5-0.3-3.7-0.3c-209.7,0-419.5,0-629.2,0c-2.8,0-5.6,0.6-8.4,0.9
		c-3.4-0.3-6.9-0.9-10.3-0.9c-207.1,0-414.3,0-621.4,0c-3.3,0-6.6,0.3-9.7,0.5c0,54.7,0,108.2,0,162.5c3.7,0,6.8,0,9.9,0
		c206.8,0,413.6,0,620.5-0.1c3.7,0,7.4-0.9,11.1-1.3c4,0.5,8,1.3,12,1.3c205.6,0.1,411.3,0.1,616.9,0
		C5375.7,2067.5,5379.8,2067.4,5383.9,2067.3z"/>
	<path class="st0" d="M1639.1,1788.6c0-301,0-601.5,0-902.5c77.8,0,155.6,0,234.1,0c0,41.5,0,82.7,0,124.5c4.2,0,7.6,0,11,0
		c86.8,0,173.6,0.1,260.5-0.2c6.9,0,11.6,2.1,16.4,6.9c33.1,33.5,66.5,66.5,99.5,100.1c3.3,3.3,5.7,9.1,5.7,13.7
		c0.3,179,0.3,358,0,537c0,4.4-1.9,10-4.9,13.1c-34.2,34.6-68.6,68.9-103.3,103c-2.6,2.5-6.9,4.6-10.4,4.6
		c-168.3,0.2-336.5,0.2-504.8,0.2C1642,1788.9,1641.1,1788.8,1639.1,1788.6z M2040.3,1244.3c-56.1,0-111.2,0-166.8,0
		c0,103.4,0,206.4,0,309.9c55.7,0,111,0,166.8,0C2040.3,1450.9,2040.3,1347.9,2040.3,1244.3z"/>
	<path class="st0" d="M5432.2,1278.6c0-12,0-22.9,0-34.9c-133.8,0-267.5,0-401.4,0c0-78.2,0-155.4,0-233.5c3.4,0,6.5,0,9.5,0
		c165.5,0,330.9,0,496.4-0.2c7,0,11.6,2.2,16.4,7c33.1,33.4,66.6,66.5,99.6,100.1c3.1,3.1,5.3,8.6,5.3,13
		c0.3,216.6,0.2,433.3,0.2,649.9c0,2.5,0,4.9,0,8.4c-4.1,0-7.4,0-10.8,0c-164.8,0-329.7,0-494.5,0.1c-6.8,0-11.7-1.7-16.6-6.7
		c-33.3-33.7-67-67-100.2-100.7c-3.1-3.1-5.5-8.5-5.5-12.9c-0.3-89.7-0.3-179.4,0-269c0-4.4,2.3-9.8,5.4-13
		c33.2-33.8,66.9-67,100.2-100.7c4.8-4.9,9.6-6.9,16.5-6.9c89.4,0.2,178.7,0.2,268.1,0.2C5424.2,1278.6,5427.7,1278.6,5432.2,1278.6
		z M5432.1,1512.8c-59,0-117.1,0-175.3,0c0,14.2,0,27.8,0,41.4c58.7,0,116.9,0,175.3,0C5432.1,1540.3,5432.1,1526.8,5432.1,1512.8z"
		/>
	<path class="st0" d="M3237.9,1788.6c-76,0-150.5,0-225.9,0c0-181.4,0-362.5,0-544.1c-59.1,0-117.3,0-176.4,0c0,181.3,0,362.4,0,544
		c-75.6,0-150.3,0-225.6,0c0-259.2,0-518.2,0-778c3.7,0,7.1,0,10.5,0c165.1,0,330.2,0,495.4-0.2c6.9,0,11.6,2,16.4,6.9
		c33.1,33.5,66.4,66.7,99.8,99.8c4,4,6.1,7.9,6.1,13.9c-0.2,216.3-0.1,432.5-0.1,648.8C3237.9,1782.5,3237.9,1785.2,3237.9,1788.6z"
		/>
	<path class="st0" d="M1181.6,1554.3c59.7,0,117.9,0,176.8,0c0-181.1,0-361.9,0-543.2c75.6,0,150.5,0,226,0c0,3.8,0,7.2,0,10.6
		c0,214.7,0,429.4,0.1,644.1c0,7.1-1.8,12.2-7,17.3c-33.7,33.2-67,66.9-100.8,100.2c-3,2.9-7.9,5.4-11.9,5.4
		c-167.4,0.3-334.7,0.2-502.1,0.2c-1.8,0-3.7,0-6.2,0c0-259.7,0-518.7,0-778.1c74.8,0,149.5,0,225,0
		C1181.6,1191.7,1181.6,1372.5,1181.6,1554.3z"/>
	<path class="st0" d="M939.8,1554.4c0,78.6,0,155.9,0,234.1c-2.7,0.2-5.4,0.4-8,0.4c-166.4,0-332.8,0.1-499.2-0.2
		c-4.4,0-9.8-2.3-12.9-5.4c-34.4-33.9-68.6-68-102.5-102.4c-3.1-3.1-5.2-8.7-5.2-13.1c-0.2-220.7-0.2-441.4,0-662.2
		c0-4.4,2.3-9.9,5.4-13c34-34.3,68.3-68.3,102.7-102.2c2.6-2.5,6.9-4.8,10.4-4.8c168.9-0.2,337.9-0.2,506.8-0.2
		c0.6,0,1.2,0.2,2.4,0.5c0,77.1,0,154.3,0,232.5c-133.3,0-266.9,0-401.2,0c0,145.8,0,290.5,0,435.9
		C671.9,1554.4,805.3,1554.4,939.8,1554.4z"/>
	<path class="st0" d="M4378.9,885.6c78.3,0,155.8,0,234,0c0,94.5,0,188.4,0,283.3c98.3,0,196,0,294.1,0c0,78.1,0,155.3,0,233.4
		c-97.5,0-195.2,0-293.5,0c0,51.1,0,101.4,0,152.4c131,0,261.6,0,392.9,0c0,77.8,0,155,0,233.6c-3.2,0-6.5,0-9.8,0
		c-165.1,0-330.3,0-495.4,0.1c-6.5,0-11.1-1.8-15.7-6.4c-33.6-33.8-67.6-67.2-101.2-101.1c-2.9-2.9-5.1-8-5.2-12.1
		c-0.2-258.9-0.2-517.8-0.2-776.7C4378.9,890.1,4378.9,887.9,4378.9,885.6z"/>
	<path class="st0" d="M4321.9,1788.1c-77.8,0-155.1,0-233.1,0c0-300.6,0-601,0-902.2c77.2,0,154.9,0,233.1,0
		C4321.9,1186.2,4321.9,1486.6,4321.9,1788.1z"/>
	<path class="st0" d="M5713.4,885.6c77.9,0,155.4,0,233.2,0c0,300.7,0,600.9,0,901.9c-77.7,0-155.2,0-233.2,0
		C5713.4,1487.3,5713.4,1186.6,5713.4,885.6z"/>
	<path class="st0" d="M2320,1010.8c77.6,0,154.9,0,232.7,0c0,259.2,0,518.2,0,777.7c-77.5,0-154.7,0-232.7,0
		C2320,1529.7,2320,1270.7,2320,1010.8z"/>
	<path class="st0" d="M2529.2,628.3c-6.5-3.7-12.9-5.9-17.4-10.2c-19.8-19-39.1-38.6-58.4-58.1c-10.9-11-11.5-24.2-0.8-35.3
		c19.5-20.2,39.4-40.1,59.6-59.6c11.2-10.8,24.3-10.3,35.3,0.5c19.8,19.4,39.5,39.1,58.9,58.9c10.5,10.7,10.7,23.7,0.2,34.5
		c-19.6,20.2-39.4,40-59.7,59.5C2542.6,622.8,2535.9,624.7,2529.2,628.3z"/>
	<path class="st0" d="M2635.1,733.9c-6.2-3.5-12.8-5.6-17.3-9.9c-20-19.2-39.6-38.9-59-58.7c-10.3-10.5-10.6-24.2-0.4-34.6
		c19.5-20.2,39.4-40,59.5-59.5c11.3-10.9,24.8-10.2,36.1,0.9c19.3,19.1,38.5,38.2,57.5,57.5c11.1,11.3,11.6,24.5,0.5,36
		c-19.6,20.1-39.5,39.9-59.8,59.3C2648,728.9,2641.6,730.6,2635.1,733.9z"/>
	<path class="st0" d="M2617.3,752.6c-3.5,6.2-5.4,12.4-9.5,16.7c-19.5,20.2-39.4,40-59.4,59.6c-10.4,10.2-24.1,10.3-34.6,0
		c-20.3-19.8-40.4-39.9-60.2-60.2c-9.4-9.6-10-22.6-0.7-32.3c20.3-21.1,41.1-41.9,62.3-62.1c9.9-9.5,23.2-8.7,33.1,1.1
		c20.3,19.9,40.4,39.9,60.1,60.3C2612.4,739.9,2614.1,746.3,2617.3,752.6z"/>
	<path class="st0" d="M2426.1,771.3c6.4,3.7,12.9,5.9,17.3,10.2c20,19.2,39.5,39,59,58.7c10.4,10.5,10.4,24,0.1,34.5
		c-19.7,20-39.5,39.9-59.6,59.5c-10.8,10.5-24.4,10.2-35.3-0.5c-19.8-19.5-39.4-39.1-58.9-58.9c-10.3-10.4-10.5-24.1-0.3-34.6
		c19.6-20.1,39.4-40,59.7-59.4C2412.7,776.6,2419.4,774.8,2426.1,771.3z"/>
	<path class="st0" d="M2233.3,752.1c3.9-7,6.1-13.9,10.6-18.6c18.5-19.4,37.5-38.3,56.7-57c12.6-12.3,26.4-11.8,39,0.8
		c18.4,18.2,36.6,36.5,54.8,54.8c12.7,12.8,12.8,26.2,0.2,38.8c-18.5,18.5-37,37-55.5,55.5c-12.4,12.4-26.4,12.4-38.9,0
		c-18.6-18.4-37.3-36.8-55.4-55.6C2240.3,765.9,2237.5,759,2233.3,752.1z"/>
	<path class="st0" d="M2423.5,522.2c-6.7-3.8-13.4-6.1-18.1-10.5c-19.6-18.8-38.6-38.1-57.6-57.4c-11.1-11.3-11.4-24.7-0.3-36.1
		c19.1-19.7,38.5-39.1,58.2-58.2c11.2-10.8,25.2-10.7,36.3,0.1c19.7,19.1,39,38.6,58.2,58.2c10.5,10.8,10.7,24.7,0.3,35.4
		c-19.3,19.9-39,39.5-59,58.7C2437,516.6,2430.3,518.5,2423.5,522.2z"/>
	<path class="st0" d="M2339.3,647c3.7-7.1,5.6-14.1,10-18.8c18.7-19.6,37.9-38.9,57.6-57.6c11.9-11.4,25.9-10.7,37.9,1
		c18.7,18.4,37.2,36.9,55.6,55.6c12,12.2,12.1,26.1,0,38.4c-18.3,18.7-36.8,37.3-55.6,55.6c-12.5,12.2-26.7,11.9-39.2-0.5
		c-18.6-18.4-37.3-36.8-55.5-55.7C2345.6,660.4,2343.2,653.7,2339.3,647z"/>
	<path class="st0" d="M2213.8,732.1c-6.7-3.7-13.2-5.9-17.7-10.2c-20-19.2-39.6-39-59-58.8c-10.3-10.5-10.5-24-0.1-34.6
		c19.3-19.9,39-39.5,58.9-58.9c11.2-10.9,25-10.7,36.2,0.3c19.6,19.2,39,38.6,58.2,58.2c10.7,10.9,10.5,24.5-0.1,35.3
		c-19.3,19.5-38.5,39.1-58.3,58.1C2227.3,726,2220.5,728.3,2213.8,732.1z"/>
	<path class="st0" d="M2319.6,454.5c6.8,3.8,13.6,6.1,18.2,10.5c19.6,18.8,38.7,38,57.6,57.4c11,11.2,11.1,24.7,0.1,36.1
		c-19.1,19.7-38.5,39.1-58.3,58.1c-11.6,11.2-25.3,10.5-36.9-0.9c-19-18.9-38-37.8-56.8-56.9c-11-11.1-11.6-24.9-0.8-36
		c19.1-19.7,38.5-39.1,58.3-58.1C2305.7,460.3,2312.6,458.3,2319.6,454.5z"/>
</g>
<rect x="4095.8" y="1898.2" class="st1" width="643.4" height="177.6"/>
<rect x="4739.2" y="1898.2" class="st0" width="643.4" height="177.6"/>
<rect x="5382.7" y="1898.2" class="st2" width="643.4" height="177.6"/>
</svg>
