<svg id="Livello_1" data-name="Livello 1" xmlns="http://www.w3.org/2000/svg" viewBox="0 0 1484.09 481.85"><defs><style>.cls-1{fill:#ec95b9;}.cls-2{fill:#aaa;}.cls-3{fill:#030302;}</style></defs><title>WIP</title><path class="cls-1" d="M0,43c2.83,0,5.66.14,8.49.14H943.32c2.66,0,5.32.23,8,.35-8.85,3.12-12.44,9.39-12.5,18.72q-1,157.08-2.4,314.15c-.1,11.85,6.47,18.49,18.39,18.74,9.64.19,19.29-.44,28.92.52-2,6.25-2.15,6.26-7.54,3.4-4.22-2.25-4.53,1.8-4.92,3.9-.92,4.92-.49,9.95,0,14.94.35,3.81.52,7.64.61,11.46,0,1.76-.58,3.54-2.73,3.4-1.89-.12-2.21-1.87-2.16-3.41.14-5.16.16-10.34.68-15.46a37,37,0,0,0-.59-10.43c-1-5.72-5.16-7.11-9.8-3.63-7.88,5.88-10.07,14.4-10.08,23.42,0,16.62-1.49,33.29,1.1,49.86.33,2.14.58,4.34-.54,6.36-.63,1.13-1.17,2.61-2.86,2.33a3.07,3.07,0,0,1-2.49-2.8,33.26,33.26,0,0,1-.23-6.46c1.45-18.3,1-36.62.91-54.94,0-5.48-1.8-10.16-6.18-13.58-2.63-2.05-4.94-2.4-8.52-.6-15,7.6-17.19,21.53-18.38,35.87-.6,7.28.36,14.63,1.64,21.87a12.63,12.63,0,0,1-.3,6.89c-.64,1.7-1.44,3.08-3.5,2.89a3.66,3.66,0,0,1-3.52-3.57,27.74,27.74,0,0,1,.54-8.95c2.33-11.6,1.86-23.17-.4-34.72a23,23,0,0,0-2.64-7c-2.61-4.58-5-5.21-9.12-1.91-2,1.6-3.45,2.13-6.14,1.06-4.14-1.65-7.22,1.58-10,4-5.87,5.12-5.79,5.24-11.3,0-1.37-1.29-3-3-4.65-2.6-5.5,1.31-7.39-2.66-10.14-5.87-4.9-5.73-8.23-5.83-14-1.44-2.78,2.11-2.48,4.78-2.32,7.63.09,1.57.55,3.94-1.76,4-2.5,0-2.25-2.35-2.18-4.17,0-.83.21-1.66.2-2.48a2.11,2.11,0,0,0-1.11-2.07c-1.1-.56-1.93.06-2.66.75-1.42,1.34-1.75,3.1-2,5-.77,5.7,0,11.3.83,16.9.3,2,.26,3.9-2.41,3.92s-2.75-1.89-2.45-3.87c1-6.79,1.46-13.59-.27-20.33-.72-2.82-1.71-5.17-5.35-5.61-4.64-.56-5.57-4.73-5.7-8.28-.18-5.31-2.48-6.36-7.4-6.35q-398.67.15-797.32.06c-1.5,0-3,0-4.5-.05ZM395.72,182.63c-2.3-1.72-2-3.68-2.29-5.41-.91-5.75-1.82-11.5-2.6-17.27-.35-2.6-2.5-6.14,2.95-6.25,1.45,0,1.18-1.77,1.19-2.88,0-3-.12-6,0-9,.14-2.59-.83-3.55-3.45-3.48-5,.14-10,0-15,0-12.31,0-12.31,0-11.56,12.27,0,.49,0,1,.05,1.49.07.9.47,1.78,1.42,1.73,5-.26,4.26,3.77,4.75,6.59q4.18,24.1,8.06,48.25c.42,2.57,1.62,3.29,4,3.25,5.5-.1,11-.33,16.49.07,3.91.29,5.24-1.32,5.91-4.8,2-10.29,4.14-20.54,6.27-30.8.17-.84-.23-2.17,1.42-2.11,1.11,1.1,1.32,2.6,1.63,4,2.13,9.92,4.37,19.82,6.28,29.79.55,2.87,1.59,4,4.52,3.84,5.32-.19,10.67-.28,16,0,3.5.2,4.9-.76,5.42-4.43,2.3-16.15,4.93-32.25,7.45-48.36.4-2.52,0-5.54,4.17-5.39,2.27.09,1.93-2.05,1.72-3.38-.6-3.95,1.67-8.23-1.33-11.85-.3-.36-1.27-.21-1.93-.21q-11.74,0-23.49,0c-1.29,0-3.06-.3-3.14,1.56-.19,4.15-.11,8.32-.07,12.47a1.44,1.44,0,0,0,1.66,1.47c4-.28,3.09,2.26,2.78,4.6-.46,3.47-.75,7-1.18,10.43-.58,4.57-1.24,9.14-1.86,13.71-3.55-11-6-22-8.53-33-2.75-11.78-2.8-11.68-14.9-11.35-2.88.08-3.95,1-4.51,3.9C401.48,155.58,398.59,168.88,395.72,182.63Zm347.4-4.4c1.12,1.06,1.58,1.32,1.78,1.71,3.09,6.06,6.92,11.89,9.05,18.28,3.68,11,10.06,15.59,22,13.95,8.63-1.19,8.83-.23,8.73-8.85,0-3.14,1.56-7.31-4.3-7.43-1.64,0-1-2.19-1-3.41,0-11.5,0-23,0-34.48,0-2.08-.1-4.16,2.93-4.08,2.45.07,2.68-1.69,2.41-3.4-.63-4,1.74-8.28-1.39-11.86-.39-.45-1.58-.27-2.41-.27-5.33,0-10.66.13-16-.06-3.06-.11-4.14,1-4.05,4,.18,6,.16,12,0,18-.08,3.54.64,7.18-.9,11.8-3.88-7.77-8-14.41-10.6-21.6-3.56-9.81-9.32-13.67-20-12.43-9.91,1.14-10,.24-10,10.06,0,2.8-1.09,6.32,4,6,1.28-.08,1,1.85,1,2.95q.06,18,0,36c0,1.43.36,3.34-2,3.13-3.08-.27-3.1,1.62-3.06,3.78.06,2.83.13,5.67,0,8.5-.14,2.58.82,3.53,3.45,3.45,5.33-.17,10.67-.26,16,0,3.53.18,4.56-1,4.48-4.48C743,198,743.12,188.56,743.12,178.23ZM547.39,138.38c-6.33,0-12.66,0-19,0-1.1,0-2.79-.55-3.16.75-1.18,4-.3,8.25-.52,12.39-.15,3,2.27,2.12,3.85,2.59s1.16,1.84,1.16,2.94q0,18,0,36c0,1.51.2,3.32-2,3.17-3.09-.21-3,1.71-3,3.83,0,2.83.15,5.67,0,8.5-.14,2.59.82,3.49,3.45,3.42,5.82-.17,11.66-.2,17.49,0,3.24.12,4.4-.91,4.28-4.25-.23-6.82.28-13.68-.19-20.48-.35-5.06,2.19-5.13,5.95-5.16s5.92.19,5.58,4.92c-.43,6-.11,12,0,18,.06,3.49,1.36,6.43,5.29,6.64,5.82.31,11.66.21,17.49.27,1,0,2.12-.15,2.14-1.48.06-4.16.05-8.32,0-12.49,0-.92-.52-1.69-1.51-1.59-4.17.43-3.42-2.53-3.43-4.92,0-5.58,0-11.24-5.69-14.49-3.1-1.75-2.28-2.81.2-4.24,3.66-2.1,5-5.65,5.34-9.63.21-2.82.16-5.66.12-8.49-.19-11.16-5.08-16-16.32-16.18C559.06,138.32,553.22,138.39,547.39,138.38Zm58,87.92c-6.33,0-12.67.07-19,0-2.46,0-3.75.58-3.61,3.33.17,3.16.06,6.33,0,9.5,0,1.43.12,2.88,2,2.74,3-.23,3.07,1.62,3.07,3.81,0,11.66,0,23.33,0,35,0,1.87.24,3.86-2.66,3.6-2.18-.2-2.53,1.28-2.34,2.9.49,4.17-1.31,8.55,1.08,12.49.26.42,1.58.25,2.4.25,6,0,12-.09,18,.05,2.83.06,3.77-1,3.7-3.79-.15-7.33.2-14.67-.15-22-.21-4.63,2.56-4.18,5.41-4s6.29-1.36,6,3.91c-.32,5.81-.15,11.66,0,17.49.12,6.49,1.87,8.2,8.43,8.33,4.5.09,9,0,13.5,0,1.24,0,3,.43,3.06-1.57.12-4.16,0-8.33,0-12.49a1.39,1.39,0,0,0-1.56-1.53c-4.2.4-3.45-2.61-3.38-5,.16-6.06-.37-11.72-6.56-15-2.25-1.21-1.11-2.25.39-3.09,4.82-2.7,6.17-7.12,6.14-12.24,0-2,0-4,0-6-.06-11.51-4.82-16.38-16.39-16.6C617,226.21,611.19,226.31,605.36,226.3ZM617.29,167l-1.34-.4c0-8.13,0-16.26,0-24.4,0-2.2-.09-3.89-3.09-3.82-6.49.15-13,0-19.49,0-1,0-2.4-.15-2.44,1.1-.15,4.48-.08,9,0,13.45,0,.34,1,1,1.49.93,3.78-.29,3.27,2.34,3.27,4.64q0,16.5,0,33c0,2.42.73,5.26-3.45,4.86-1.63-.15-1.58,1.41-1.6,2.56,0,3.33.11,6.67,0,10-.11,2.48,1,3.11,3.25,3.07,6-.12,12-.22,18,0,3.41.14,4.23-1.15,4.12-4.34-.23-6.49.18-13-.16-19.48-.21-4.12,1.63-4.73,5-4.49,3,.21,6-.58,5.79,4.35-.35,6.81,0,13.65-.13,20.48,0,2.57.77,3.53,3.42,3.46,6.16-.16,12.33-.11,18.49,0,2.27,0,3.38-.74,3.28-3.18-.13-3.16-.06-6.33,0-9.49,0-1.72-.42-3.07-2.43-3-3,.16-3-1.72-3-3.9.06-6.16,0-12.33.05-18.49,0-2.5-.83-3.49-3.45-3.65-9-.54-9-.63-4.56-8.5.58-1,1.19-2,1.76-3,1.55-2.74,2.75-5.88,7-4.84a1.77,1.77,0,0,0,2.3-1.93c-.16-4.29,1.51-9.19-.79-12.67-1.68-2.55-6.24-.57-9.48-.93a19,19,0,0,1-2,0c-5.29-1.16-7.69,1.62-9.57,6.17C624.42,152.12,620.74,159.49,617.29,167ZM446.52,262.81c9-3.57,9.92-10,9.5-17,0-.83,0-1.66,0-2.5-.09-12.11-4.84-16.92-16.95-17-10.15-.07-20.31,0-30.47,0-9.09,0-9.18,0-9,9.26.05,2.71-1.7,6.74,3.86,6.58,1.27,0,1.07,1.86,1.07,3q0,18,0,36c0,1.24.34,3.17-1.57,3.05-4.24-.28-3.34,2.62-3.39,5-.06,2.5.12,5,0,7.49-.17,2.65.91,3.44,3.48,3.37q9-.23,18,0c2.79.08,3.84-.79,3.75-3.69-.18-6.32-.14-12.65,0-19,.12-8-1.57-7,7.61-7.22,2.91-.09,3.8,1,3.7,3.77-.16,4.16,0,8.33,0,12.49,0,13.34.22,13.56,13.76,13.57,11.59,0,11.59,0,11.26-11.56,0-.5,0-1,0-1.5,0-1.47-.39-2.73-2.21-2.6-2.79.21-2.86-1.58-2.71-3.54C456.55,273.35,455.78,266.59,446.52,262.81Zm79.11.46h-.1c0,7.16-.21,14.33.05,21.49.39,10.44,4.84,14.85,15.21,15.05s21,0,31.49.11c3,0,4.12-.91,4.05-4-.17-8.17,0-16.33-.07-24.5,0-5,1.65-11.56-.86-14.49-2.92-3.41-9.71-1-14.81-1.12-9.7-.18-9.67-.05-9.56,9.72,0,2.8-.17,5.48,4,5.14,1.62-.13,2.13,1.34,2.14,2.81,0,2.66,0,5.33,0,8,0,1.83-.79,2.8-2.68,2.78s-4-.09-6,.05c-2.51.17-3-1.07-3-3.32.08-11.83.06-23.66,0-35.5,0-2,.15-4,2.76-3.57,3,.55,7.53-2.34,8.57,2.09.88,3.8,2.64,3.91,5.48,3.82,3.16-.1,6.34-.16,9.49,0,2.51.14,3.66-.58,3.59-3.29-.15-5-.09-10,0-15,0-2.16-.49-3.35-3.07-3.31-10.66.14-21.34-.21-32,.21-9.63.38-14.16,5.11-14.62,14.82C525.35,248.59,525.63,255.94,525.63,263.27Zm149.75,36.61h15c12,0,12,0,12-12.25,0-12.78,0-12.64-12.72-12.75-3.66,0-5.28.89-4.83,4.73.15,1.39.78,3.53-.74,4.15-2.79,1.14-6,.88-8.84.26-2.41-.52-1.08-3.07-1.36-4.72a13.9,13.9,0,0,1,0-2.5c.12-8.54-1.27-7.63,7.72-7.66,7.71,0,7.45,0,7.78-7.88.17-4.33-1-5.73-5.48-5.61-10.89.29-10.73.06-10.11-10.63.22-3.78,2.5-3.5,4.72-3.12s6.67-2.08,6.26,3,2.12,5.4,5.92,5.11c2.65-.21,5.33-.09,8-.05,2.31.05,3.23-.95,3.19-3.31-.12-5.67-.11-11.33,0-17,0-2.36-.89-3.32-3.21-3.32q-23.49,0-47,0c-1.41,0-2.82.06-2.85,1.91-.07,4,0,8,0,12,0,1,.58,1.69,1.51,1.61,4.13-.37,3.45,2.53,3.45,4.94,0,10.5.07,21,0,31.49,0,2.69,1.34,6.36-3.82,6.17-1.48-.06-1.17,1.77-1.19,2.85-.06,3,.14,6-.06,9s.84,3.75,3.68,3.69C660.05,299.77,667.71,299.88,675.38,299.88Zm-157.9-36.13h-.11c0-8.15.28-16.31-.09-24.44-.3-6.34-3.94-10.94-9.48-12a84.88,84.88,0,0,0-30.24-.08,12,12,0,0,0-10.37,11.8c-.26,15.8-.35,31.6.07,47.39.2,7.89,5.34,12.83,13,13.19,8,.38,16,.41,23.94,0s12.9-5.55,13.24-13.48C517.74,278.73,517.48,271.23,517.48,263.75Zm-50.8-89.22h.2c0,8.15-.34,16.31.1,24.44.4,7.56,5.31,12.36,12.83,12.72,8,.37,16,.38,23.94,0,7.59-.36,13.15-5.66,13.29-13,.3-15.46.34-30.94,0-46.4-.19-8.34-5.2-13.29-13.51-13.78a199.67,199.67,0,0,0-22.95,0c-8.78.51-13.53,5.64-13.84,14.5C466.48,160.22,466.68,167.38,466.68,174.53ZM780.06,299.88v-.18c5.83,0,11.68.31,17.48-.08,7.91-.53,12.58-5.41,12.87-13.2.24-6.32.27-12.67-.06-19-.33-6.53-4.46-10.81-10.93-11.62a95.54,95.54,0,0,0-11-.48c-10.54-.11-9.08,1.12-9.15-9.44,0-.33,0-.67,0-1-.19-2.11.84-3.31,2.89-3,2.74.43,7.47-1.79,7.85,1.54.61,5.36,3.56,4.55,6.81,4.54,2.83,0,5.66-.09,8.49,0,2.39.09,3.25-.92,3.2-3.26-.1-5,0-10,0-15,0-1.79-.18-3.46-2.55-3.42-11.65.21-23.34-.86-34.94.56-7.28.89-10.46,4.61-10.88,12a175.26,175.26,0,0,0-.05,18.48c.36,7.71,5,12.1,12.8,12.47,4.66.22,9.33.08,14,.15,1.27,0,3.07-.41,3.33,1.34.57,3.95,1.29,8.32-.26,11.81-1.14,2.58-5.16.74-7.87,1.05-1.77.21-3-.62-2.73-2.57.65-4.22-1.75-4.56-5-4.39-3.49.19-7,.11-10.5,0-2.45-.06-3.62.68-3.51,3.43.2,5.16.19,10.33,0,15.49-.11,2.87.94,3.81,3.74,3.73C769.39,299.77,774.73,299.88,780.06,299.88Zm-53.71,0v-.08c5.32,0,10.66.2,16,0,9.44-.43,14.26-5.43,14.57-14.82.09-2.66,0-5.32,0-8,0-19-2.63-21.62-21.63-21.63-10.32,0-10.32,0-9.65-10.2.09-1.4-.36-3.42,2-3.23,3,.25,8.37-1.42,8.59,1.12.57,6.78,4.85,4.9,8.38,4.94,10,.13,10,.05,10.07-10.29.05-11.36.05-11.37-11.11-11.37-7.33,0-14.66-.12-22,.06-10.8.25-14.55,3.88-15.44,14.68-.22,2.65-.18,5.33-.18,8,0,18,3,21,20.75,21,11,0,10.93,0,10.2,11.16-.15,2.4-.93,3.28-3.26,3.12a47.89,47.89,0,0,0-5.49,0c-1.64.07-2.75-.54-2.45-2.24.86-4.94-2.16-4.95-5.64-4.78-3.32.16-6.66.17-10,0-2.66-.13-3.43.93-3.35,3.49.16,5.32.12,10.66,0,16-.06,2.37.76,3.23,3.16,3.17C715.36,299.79,720.85,299.88,726.35,299.88ZM362,226.4v-.11H350.48c-12.13,0-12.13,0-11.6,11.93a8.34,8.34,0,0,1,0,1c-.09,1.61.61,2.64,2.26,2.6,3.38-.09,3.09,2.26,3.09,4.44,0,11.33,0,22.66,0,34,0,2.14.08,4.09-2.95,4-2.43-.07-2.64,1.79-2.38,3.48.59,4-1.59,8.24,1.29,11.9.29.36,1.27.24,1.93.24,7.83,0,15.66,0,23.49,0,1.42,0,3.24-.26,2.71-1.93-1.52-4.75,4.18-11.39-3.74-14.51-.42-.16-.51-1.47-.55-2.26a48.79,48.79,0,0,0,0-5c-.67-4.59,1.46-5.73,5.68-5.53a91.85,91.85,0,0,0,14-.44c7-.74,10.82-4.76,11.18-11.78.3-6,.3-12,.05-18-.41-9.55-4.29-13.49-14-14C374.65,226.12,368.3,226.4,362,226.4Zm336.42-14.47c4,0,8,0,12,0,1.1,0,2.74.38,2.82-1.24.22-4.15.19-8.32.18-12.48,0-2.64-2.54-1.47-3.72-2.33s-.72-2.13-.72-3.25c0-11.66,0-23.32,0-35,0-1.9,0-3.63,2.73-3.73s1.84-2.48,1.7-3.87c-.37-3.83,1.43-7.94-1.2-11.43-.38-.51-1.9-.2-2.9-.21-5.66,0-11.33,0-17,0-10,.08-8.48-1.12-8.47,8.41,0,3-1.88,7.41,4.12,7.48,1.27,0,1.08,1.86,1.08,3q0,18,0,36c0,1.37,0,3-1.83,2.9-3.57-.17-3.44,2.05-3.47,4.55-.14,11.21-.17,11.21,11.21,11.21Z" transform="translate(0 0.05)"/><path class="cls-2" d="M983.71,395.63c-9.63-1-19.28-.33-28.92-.52-11.92-.25-18.49-6.89-18.39-18.74q1.25-157.08,2.4-314.15c.06-9.33,3.65-15.6,12.5-18.72q17.22,0,34.45,0c6.56,0,6.56,0,6.68-6.32.32-17.49,10.25-31.11,26.25-36.17A24.13,24.13,0,0,1,1026.05,0c14.17,0,28.33,0,42.49.23,13.13.22,22.67,6.52,29.25,17.77q32.42,55.38,65,110.67c14.55,24.65,29.4,49.12,44,73.77,3.87,6.56,9.21,9.64,16.78,9.56,11.33-.12,22.66,0,34,.18,3.41.07,4.86-.85,4.59-4.46s0-7.33,0-11c.12-8.58,4.75-12.9,13.45-13.16,13.19-.4,26.28,1.06,39.39,2,32.6,2.43,65.23,2.54,97.9,1.72,17.15-.43,34.19-3,51.4-2.26,9.86.41,14.07,4.2,14.14,13.9a26.43,26.43,0,0,0,2.73,11.16c4,8.9,4.53,18.35-1.71,27-2.4,3.3-1.12,7.1-1.3,10.67-.27,5.4-2,9.72-7.16,12.14-1.9.88-3.86.82-5.86.92-14.37.76-28.61-1.21-42.88-2.26-28.29-2.07-56.61-1.47-84.93-1.62-19.35-.1-38.53,3-57.88,2.51-1.67,0-3.34,0-5-.08-8.33-.34-12.33-4.59-12.57-12.82-.15-4.75,2.17-10.83-1.1-13.88-3-2.79-8.93-.77-13.57-.92-9.33-.29-18.66-.33-28-.61-12.63-.38-21.8-6.74-28-17.28Q1148.74,142,1106.6,70.09c-8.36-14.2-16.9-28.28-25.37-42.41a15.88,15.88,0,0,0-14-8.21c-13.32-.22-26.66-.46-40-.28-10.78.14-19.15,12.33-16,22.59.78,2.55,2.74,2,4.47,2,10,.16,20,.26,30,.37a42.86,42.86,0,0,1,.46,21.2c-2.66,10.95-8.7,20-15.26,28.84-6,8-12.9,15.44-16.54,24.81-6.18,15.92-4.61,32.05.67,47.9,4.94,14.86,14.08,27.41,22.77,40.2,18.8,27.69,20.83,54-1.34,82.14a135.6,135.6,0,0,0-13.58,20.28c-5.26,9.9-5.47,19.54.35,29.37,4.55,7.67,10.59,14,16.56,20.52,9.06,9.83,14.88,21.11,14.89,34.85-5.12,2.12-10.5,1.21-15.78,1.28-6.81.08-13.75.71-20.41-.35-5.28-.84-6.57,3.5-9.06,5.54a9.1,9.1,0,0,1-6.42,2.28c-1.49,0-3-.14-4.48,0-5.86.6-10.47-.88-12.64-7C985.59,395.26,984.56,395.24,983.71,395.63Z" transform="translate(0 0.05)"/><path class="cls-1" d="M1054.68,394.31c0-13.74-5.83-25-14.89-34.85-6-6.49-12-12.85-16.56-20.52-5.82-9.83-5.61-19.47-.35-29.37a135.6,135.6,0,0,1,13.58-20.28c22.17-28.13,20.14-54.45,1.34-82.14-8.69-12.79-17.83-25.34-22.77-40.2-5.28-15.85-6.85-32-.67-47.9,3.64-9.37,10.59-16.82,16.54-24.81,6.56-8.82,12.6-17.89,15.26-28.84a42.86,42.86,0,0,0-.46-21.2c13.41-2.74,21.3,5.66,21.33,19.09.13,65.62.39,131.25,1.13,196.87.45,39.31.55,78.62.83,117.92,0,8-3.79,14-10,16.24C1057.46,394.86,1056.11,395.15,1054.68,394.31Z" transform="translate(0 0.05)"/><path class="cls-3" d="M395.72,182.63c2.87-13.75,5.76-27,8.34-40.42.56-2.9,1.63-3.82,4.51-3.9,12.1-.33,12.15-.43,14.9,11.35,2.56,11,5,22,8.53,33,.62-4.57,1.28-9.14,1.86-13.71.43-3.47.72-7,1.18-10.43.31-2.34,1.2-4.88-2.78-4.6a1.44,1.44,0,0,1-1.66-1.47c0-4.15-.12-8.32.07-12.47.08-1.86,1.85-1.56,3.14-1.56q11.74,0,23.49,0c.66,0,1.63-.15,1.93.21,3,3.62.73,7.9,1.33,11.85.21,1.33.55,3.47-1.72,3.38-4.16-.15-3.77,2.87-4.17,5.39-2.52,16.11-5.15,32.21-7.45,48.36-.52,3.67-1.92,4.63-5.42,4.43-5.31-.31-10.66-.22-16,0-2.93.11-4-1-4.52-3.84-1.91-10-4.15-19.87-6.28-29.79-.31-1.43-.52-2.93-1.63-4-1.65-.06-1.25,1.27-1.42,2.11-2.13,10.26-4.3,20.51-6.27,30.8-.67,3.48-2,5.09-5.91,4.8-5.47-.4-11-.17-16.49-.07-2.38,0-3.58-.68-4-3.25q-3.89-24.15-8.06-48.25c-.49-2.82.28-6.85-4.75-6.59-.95,0-1.35-.83-1.42-1.73,0-.5,0-1-.05-1.49-.75-12.28-.75-12.28,11.56-12.27,5,0,10,.1,15,0,2.62-.07,3.59.89,3.45,3.48-.17,3,0,6,0,9,0,1.11.26,2.85-1.19,2.88-5.45.11-3.3,3.65-2.95,6.25.78,5.77,1.69,11.52,2.6,17.27C393.7,179,393.42,180.91,395.72,182.63Z" transform="translate(0 0.05)"/><path class="cls-3" d="M743.12,178.23c0,10.33-.15,19.81.07,29.29.08,3.49-1,4.66-4.48,4.48-5.32-.28-10.66-.19-16,0-2.63.08-3.59-.87-3.45-3.45.16-2.83.09-5.67,0-8.5,0-2.16,0-4.05,3.06-3.78,2.37.21,2-1.7,2-3.13q0-18,0-36c0-1.1.27-3-1-2.95-5.1.32-4-3.2-4-6-.05-9.82.08-8.92,10-10.06,10.69-1.24,16.45,2.62,20,12.43,2.61,7.19,6.72,13.83,10.6,21.6,1.54-4.62.82-8.26.9-11.8.13-6,.15-12,0-18-.09-3.06,1-4.15,4.05-4,5.33.19,10.66,0,16,.06.83,0,2-.18,2.41.27,3.13,3.58.76,7.9,1.39,11.86.27,1.71,0,3.47-2.41,3.4-3-.08-2.93,2-2.93,4.08,0,11.49,0,23,0,34.48,0,1.22-.61,3.37,1,3.41,5.86.12,4.26,4.29,4.3,7.43.1,8.62-.1,7.66-8.73,8.85-11.92,1.64-18.3-2.93-22-13.95-2.13-6.39-6-12.22-9.05-18.28C744.7,179.55,744.24,179.29,743.12,178.23Z" transform="translate(0 0.05)"/><path class="cls-3" d="M547.39,138.38c5.83,0,11.67-.06,17.5,0,11.24.16,16.13,5,16.32,16.18,0,2.83.09,5.67-.12,8.49-.3,4-1.68,7.53-5.34,9.63-2.48,1.43-3.3,2.49-.2,4.24,5.73,3.25,5.67,8.91,5.69,14.49,0,2.39-.74,5.35,3.43,4.92,1-.1,1.51.67,1.51,1.59,0,4.17,0,8.33,0,12.49,0,1.33-1.1,1.49-2.14,1.48-5.83-.06-11.67,0-17.49-.27-3.93-.21-5.23-3.15-5.29-6.64-.11-6-.43-12,0-18,.34-4.73-1.92-4.94-5.58-4.92s-6.3.1-5.95,5.16c.47,6.8,0,13.66.19,20.48.12,3.34-1,4.37-4.28,4.25-5.83-.2-11.67-.17-17.49,0-2.63.07-3.59-.83-3.45-3.42.16-2.83.06-5.67,0-8.5,0-2.12-.08-4,3-3.83,2.24.15,2-1.66,2-3.17q0-18,0-36c0-1.1.34-2.49-1.16-2.94s-4,.4-3.85-2.59c.22-4.14-.66-8.34.52-12.39.37-1.3,2.06-.74,3.16-.75C534.73,138.36,541.06,138.38,547.39,138.38Zm13.76,22.86c-.25-8.27,1.53-7.13-7.38-7.4-3-.09-4.24.79-4,3.9.22,2.63.06,5.3.05,7.95,0,1.23.24,2.13,1.69,2.58C558,170.25,561.15,168,561.15,161.24Z" transform="translate(0 0.05)"/><path class="cls-3" d="M605.36,226.3c5.83,0,11.67-.09,17.5,0,11.57.22,16.33,5.09,16.39,16.6,0,2,0,4,0,6,0,5.12-1.32,9.54-6.14,12.24-1.5.84-2.64,1.88-.39,3.09,6.19,3.3,6.72,9,6.56,15-.07,2.37-.82,5.38,3.38,5a1.39,1.39,0,0,1,1.56,1.53c0,4.16.12,8.33,0,12.49-.06,2-1.82,1.56-3.06,1.57-4.5,0-9,.09-13.5,0-6.56-.13-8.31-1.84-8.43-8.33-.1-5.83-.27-11.68,0-17.49.28-5.27-3.31-3.77-6-3.91s-5.62-.61-5.41,4c.35,7.32,0,14.66.15,22,.07,2.82-.87,3.85-3.7,3.79-6-.14-12,0-18-.05-.82,0-2.14.17-2.4-.25-2.39-3.94-.59-8.32-1.08-12.49-.19-1.62.16-3.1,2.34-2.9,2.9.26,2.66-1.73,2.66-3.6,0-11.66,0-23.33,0-35,0-2.19,0-4-3.07-3.81-1.87.14-2-1.31-2-2.74,0-3.17.13-6.34,0-9.5-.14-2.75,1.15-3.38,3.61-3.33C592.69,226.37,599,226.3,605.36,226.3Zm13.84,22.56c-1.14-2,2.27-5.92-2.36-7-2.05-.46-4.29-.06-6.45-.07-1.3,0-2.35.37-2.36,1.88,0,3.64,0,7.29,0,10.93,0,1.18.93,1.51,2,1.76C617.1,258,619.2,256.41,619.2,248.86Z" transform="translate(0 0.05)"/><path class="cls-3" d="M617.29,167c3.45-7.47,7.13-14.84,10.27-22.44,1.88-4.55,4.28-7.33,9.57-6.17a19,19,0,0,0,2,0c3.24.36,7.8-1.62,9.48.93,2.3,3.48.63,8.38.79,12.67a1.77,1.77,0,0,1-2.3,1.93c-4.25-1-5.45,2.1-7,4.84-.57,1-1.18,2-1.76,3-4.46,7.87-4.46,8,4.56,8.5,2.62.16,3.49,1.15,3.45,3.65-.09,6.16,0,12.33-.05,18.49,0,2.18,0,4.06,3,3.9,2-.11,2.45,1.24,2.43,3,0,3.16-.1,6.33,0,9.49.1,2.44-1,3.2-3.28,3.18-6.16-.07-12.33-.12-18.49,0-2.65.07-3.46-.89-3.42-3.46.13-6.83-.22-13.67.13-20.48.25-4.93-2.8-4.14-5.79-4.35-3.41-.24-5.25.37-5,4.49.34,6.48-.07,13,.16,19.48.11,3.19-.71,4.48-4.12,4.34-6-.25-12-.15-18,0-2.28,0-3.36-.59-3.25-3.07.15-3.32,0-6.66,0-10,0-1.15,0-2.71,1.6-2.56,4.18.4,3.45-2.44,3.45-4.86q0-16.5,0-33c0-2.3.51-4.93-3.27-4.64-.49,0-1.48-.59-1.49-.93-.11-4.48-.18-9,0-13.45,0-1.25,1.47-1.09,2.44-1.1,6.5,0,13,.11,19.49,0,3-.07,3.11,1.62,3.09,3.82-.05,8.14,0,16.27,0,24.4Z" transform="translate(0 0.05)"/><path class="cls-3" d="M446.52,262.81c9.26,3.78,10,10.54,9.5,17.87-.15,2-.08,3.75,2.71,3.54,1.82-.13,2.19,1.13,2.21,2.6,0,.5,0,1,0,1.5.33,11.57.33,11.57-11.26,11.56-13.54,0-13.77-.23-13.76-13.57,0-4.16-.12-8.33,0-12.49.1-2.75-.79-3.86-3.7-3.77-9.18.26-7.49-.83-7.61,7.22-.1,6.32-.14,12.65,0,19,.09,2.9-1,3.77-3.75,3.69q-9-.24-18,0c-2.57.07-3.65-.72-3.48-3.37.16-2.49,0-5,0-7.49.05-2.34-.85-5.24,3.39-5,1.91.12,1.57-1.81,1.57-3.05q0-18,0-36c0-1.09.2-3-1.07-3-5.56.16-3.81-3.87-3.86-6.58-.16-9.26-.07-9.26,9-9.26,10.16,0,20.32,0,30.47,0,12.11.09,16.86,4.9,16.95,17,0,.84,0,1.67,0,2.5C456.44,252.84,455.54,259.24,446.52,262.81Zm-10.6-13.48c-.11-8.34,1.08-7.39-6.86-7.52-.83,0-1.67,0-2.5,0a1.65,1.65,0,0,0-1.85,1.83c0,3.66-.06,7.33,0,11,0,1.19.82,1.54,1.95,1.78C433.88,258,435.92,256.49,435.92,249.33Z" transform="translate(0 0.05)"/><path class="cls-3" d="M525.63,263.27c0-7.33-.28-14.68.07-22,.46-9.71,5-14.44,14.62-14.82,10.65-.42,21.33-.07,32-.21,2.58,0,3.09,1.15,3.07,3.31-.06,5-.12,10,0,15,.07,2.71-1.08,3.43-3.59,3.29-3.15-.18-6.33-.12-9.49,0-2.84.09-4.6,0-5.48-3.82-1-4.43-5.62-1.54-8.57-2.09-2.61-.48-2.76,1.57-2.76,3.57,0,11.84.06,23.67,0,35.5,0,2.25.52,3.49,3,3.32,2-.14,4-.07,6-.05s2.7-.95,2.68-2.78c0-2.66,0-5.33,0-8,0-1.47-.52-2.94-2.14-2.81-4.18.34-4-2.34-4-5.14-.11-9.77-.14-9.9,9.56-9.72,5.1.1,11.89-2.29,14.81,1.12,2.51,2.93.82,9.52.86,14.49.06,8.17-.1,16.33.07,24.5.07,3.09-1,4-4.05,4-10.49-.13-21,.09-31.49-.11S526,295.2,525.58,284.76c-.26-7.16-.05-14.33-.05-21.49Z" transform="translate(0 0.05)"/><path class="cls-3" d="M675.38,299.88c-7.67,0-15.33-.11-23,.06-2.84.06-3.88-.84-3.68-3.69s0-6,.06-9c0-1.08-.29-2.91,1.19-2.85,5.16.19,3.8-3.48,3.82-6.17.08-10.49,0-21,0-31.49,0-2.41.68-5.31-3.45-4.94-.93.08-1.51-.65-1.51-1.61,0-4-.07-8,0-12,0-1.85,1.44-1.91,2.85-1.91q23.49,0,47,0c2.32,0,3.25,1,3.21,3.32-.1,5.67-.11,11.33,0,17,0,2.36-.88,3.36-3.19,3.31-2.67,0-5.35-.16-8,.05-3.8.29-6.32-.05-5.92-5.11s-3.95-2.57-6.26-3-4.5-.66-4.72,3.12c-.62,10.69-.78,10.92,10.11,10.63,4.52-.12,5.65,1.28,5.48,5.61-.33,7.87-.07,7.86-7.78,7.88-9,0-7.6-.88-7.72,7.66a13.9,13.9,0,0,0,0,2.5c.28,1.65-1,4.2,1.36,4.72,2.87.62,6,.88,8.84-.26,1.52-.62.89-2.76.74-4.15-.45-3.84,1.17-4.76,4.83-4.73,12.7.11,12.7,0,12.72,12.75,0,12.25,0,12.25-12,12.25Z" transform="translate(0 0.05)"/><path class="cls-3" d="M517.48,263.75c0,7.48.26,15-.07,22.44-.34,7.93-5.34,13.1-13.24,13.48s-16,.36-23.94,0c-7.63-.36-12.77-5.3-13-13.19-.42-15.79-.33-31.59-.07-47.39a12,12,0,0,1,10.37-11.8,84.88,84.88,0,0,1,30.24.08c5.54,1,9.18,5.62,9.48,12,.37,8.13.09,16.29.09,24.44Zm-19.56-.29c0-5.67-.3-11.36.09-17,.35-5.08-2.72-4.59-6-4.72s-5.25.28-5.15,4.47c.28,11.16.34,22.33,0,33.49-.15,4.62,2.13,4.72,5.46,4.6,3-.1,6.07.58,5.71-4.36C497.6,274.48,497.91,269,497.92,263.46Z" transform="translate(0 0.05)"/><path class="cls-3" d="M466.68,174.53c0-7.15-.2-14.31.05-21.45.31-8.86,5.06-14,13.84-14.5a199.67,199.67,0,0,1,22.95,0c8.31.49,13.32,5.44,13.51,13.78.35,15.46.31,30.94,0,46.4-.14,7.29-5.7,12.59-13.29,13-8,.36-16,.35-23.94,0-7.52-.36-12.43-5.16-12.83-12.72-.44-8.13-.1-16.29-.1-24.44Zm30.62,1.05c0-6-.18-12,.07-18,.18-4.33-2.58-3.87-5.23-3.69s-5.94-1.33-5.87,3.6c.16,11.81.14,23.62,0,35.43-.05,5.1,3.66,3.14,6,3.35s5.21,1,5.06-3.25C497.14,187.23,497.3,181.4,497.3,175.58Z" transform="translate(0 0.05)"/><path class="cls-3" d="M780.06,299.88c-5.33,0-10.67-.11-16,.05-2.8.08-3.85-.86-3.74-3.73.18-5.16.19-10.33,0-15.49-.11-2.75,1.06-3.49,3.51-3.43,3.5.1,7,.18,10.5,0,3.25-.17,5.65.17,5,4.39-.31,1.95,1,2.78,2.73,2.57,2.71-.31,6.73,1.53,7.87-1.05,1.55-3.49.83-7.86.26-11.81-.26-1.75-2.06-1.32-3.33-1.34-4.66-.07-9.33.07-14-.15-7.81-.37-12.44-4.76-12.8-12.47a175.26,175.26,0,0,1,.05-18.48c.42-7.43,3.6-11.15,10.88-12,11.6-1.42,23.29-.35,34.94-.56,2.37,0,2.55,1.63,2.55,3.42,0,5-.08,10,0,15,0,2.34-.81,3.35-3.2,3.26-2.83-.11-5.66,0-8.49,0-3.25,0-6.2.82-6.81-4.54-.38-3.33-5.11-1.11-7.85-1.54-2-.33-3.08.87-2.89,3,0,.33,0,.67,0,1,.07,10.56-1.39,9.33,9.15,9.44a95.54,95.54,0,0,1,11,.48c6.47.81,10.6,5.09,10.93,11.62.33,6.32.3,12.67.06,19-.29,7.79-5,12.67-12.87,13.2-5.8.39-11.65.08-17.48.08Z" transform="translate(0 0.05)"/><path class="cls-3" d="M726.35,299.88c-5.5,0-11-.09-16.48,0-2.4.06-3.22-.8-3.16-3.17.13-5.32.17-10.66,0-16-.08-2.56.69-3.62,3.35-3.49,3.33.17,6.67.16,10,0,3.48-.17,6.5-.16,5.64,4.78-.3,1.7.81,2.31,2.45,2.24a47.89,47.89,0,0,1,5.49,0c2.33.16,3.11-.72,3.26-3.12.73-11.17.81-11.17-10.2-11.16-17.78,0-20.79-3-20.75-21,0-2.66,0-5.34.18-8,.89-10.8,4.64-14.43,15.44-14.68,7.32-.18,14.65-.06,22-.06,11.16,0,11.16,0,11.11,11.37,0,10.34,0,10.42-10.07,10.29-3.53,0-7.81,1.84-8.38-4.94-.22-2.54-5.59-.87-8.59-1.12-2.33-.19-1.88,1.83-2,3.23-.67,10.2-.67,10.2,9.65,10.2,19,0,21.62,2.64,21.63,21.63,0,2.67.06,5.33,0,8-.31,9.39-5.13,14.39-14.57,14.82-5.32.24-10.66,0-16,0Z" transform="translate(0 0.05)"/><path class="cls-3" d="M362,226.4c6.33,0,12.68-.28,19,.06,9.66.51,13.54,4.45,14,14,.25,6,.25,12-.05,18-.36,7-4.19,11-11.18,11.78a91.85,91.85,0,0,1-14,.44c-4.22-.2-6.35.94-5.68,5.53a48.79,48.79,0,0,1,0,5c0,.79.13,2.1.55,2.26,7.92,3.12,2.22,9.76,3.74,14.51.53,1.67-1.29,1.94-2.71,1.93-7.83,0-15.66,0-23.49,0-.66,0-1.64.12-1.93-.24-2.88-3.66-.7-7.94-1.29-11.9-.26-1.69-.05-3.55,2.38-3.48,3,.09,3-1.86,2.95-4,0-11.32,0-22.65,0-34,0-2.18.29-4.53-3.09-4.44-1.65,0-2.35-1-2.26-2.6a8.34,8.34,0,0,0,0-1c-.53-11.93-.53-11.93,11.6-11.93H362Zm13.65,23.32c0-7.83,0-7.83-5.09-7.89-6.41-.08-6.4-.08-6.43,6.58,0,2.15-.06,4.31-.08,6.47,0,1-.07,2.18,1.18,2.41,3.11.59,6.44,1.09,9.3-.18,2.37-1.05.71-3.89,1.1-5.9A9.24,9.24,0,0,0,375.62,249.72Z" transform="translate(0 0.05)"/><path class="cls-3" d="M698.39,211.93h-3.5c-11.38,0-11.35,0-11.21-11.21,0-2.5-.1-4.72,3.47-4.55,1.85.09,1.83-1.53,1.83-2.9q0-18,0-36c0-1.14.19-3-1.08-3-6-.07-4.11-4.46-4.12-7.48,0-9.53-1.54-8.33,8.47-8.41,5.66,0,11.33,0,17,0,1,0,2.52-.3,2.9.21,2.63,3.49.83,7.6,1.2,11.43.14,1.39,1,3.76-1.7,3.87s-2.73,1.83-2.73,3.73c0,11.67,0,23.33,0,35,0,1.12-.38,2.43.72,3.25s3.71-.31,3.72,2.33c0,4.16,0,8.33-.18,12.48-.08,1.62-1.72,1.23-2.82,1.24C706.39,212,702.39,211.93,698.39,211.93Z" transform="translate(0 0.05)"/><path class="cls-1" d="M561.15,161.24c0,6.74-3.17,9-9.62,7-1.45-.45-1.69-1.35-1.69-2.58,0-2.65.17-5.32-.05-7.95-.26-3.11,1-4,4-3.9C562.68,154.11,560.9,153,561.15,161.24Z" transform="translate(0 0.05)"/><path class="cls-1" d="M619.2,248.86c0,7.55-2.1,9.16-9.13,7.55-1.08-.25-2-.58-2-1.76-.07-3.64-.06-7.29,0-10.93,0-1.51,1.06-1.88,2.36-1.88,2.16,0,4.4-.39,6.45.07C621.47,242.94,618.06,246.89,619.2,248.86Z" transform="translate(0 0.05)"/><path class="cls-1" d="M435.92,249.33c0,7.16-2,8.68-9.28,7.11-1.13-.24-1.94-.59-1.95-1.78,0-3.66,0-7.33,0-11a1.65,1.65,0,0,1,1.85-1.83c.83,0,1.67,0,2.5,0C437,241.94,435.81,241,435.92,249.33Z" transform="translate(0 0.05)"/><path class="cls-1" d="M497.92,263.46c0,5.5-.32,11,.09,16.49.36,4.94-2.67,4.26-5.71,4.36-3.33.12-5.61,0-5.46-4.6.36-11.16.3-22.33,0-33.49-.1-4.19,1.84-4.59,5.15-4.47s6.35-.36,6,4.72C497.62,252.1,497.92,257.79,497.92,263.46Z" transform="translate(0 0.05)"/><path class="cls-1" d="M497.3,175.58c0,5.82-.16,11.65.06,17.47.15,4.27-2.79,3.45-5.06,3.25s-6.06,1.75-6-3.35c.12-11.81.14-23.62,0-35.43-.07-4.93,3.35-3.43,5.87-3.6s5.41-.64,5.23,3.69C497.12,163.59,497.3,169.59,497.3,175.58Z" transform="translate(0 0.05)"/><path class="cls-1" d="M375.61,249.72a8.23,8.23,0,0,1,0,1.49c-.39,2,1.27,4.85-1.1,5.9-2.86,1.27-6.19.77-9.3.18-1.25-.23-1.19-1.41-1.18-2.41,0-2.16.07-4.32.08-6.47,0-6.66,0-6.66,6.43-6.58C375.64,241.89,375.64,241.89,375.61,249.72Z" transform="translate(0 0.05)"/></svg>